<?xml version="1.0" encoding="UTF-8" ?>
<!DOCTYPE svg PUBLIC "-//W3C//DTD SVG 1.1//EN" "http://www.w3.org/Graphics/SVG/1.1/DTD/svg11.dtd">
<svg width="800pt" height="500pt" viewBox="0 0 800 500" version="1.1" xmlns="http://www.w3.org/2000/svg">
<g id="#dc193cff">
<path fill="#dc193c" opacity="1.00" d=" M 53.36 28.44 C 54.87 28.15 56.40 28.04 57.94 27.98 C 283.29 28.01 508.65 28.01 734.00 27.98 C 741.68 27.63 749.94 27.80 756.43 32.53 C 764.50 37.88 770.28 47.08 770.11 56.94 C 771.00 77.90 756.91 98.28 737.14 105.15 C 729.16 108.40 720.44 108.14 712.00 108.00 C 504.33 107.99 296.67 108.00 89.00 108.00 C 81.26 107.98 73.31 108.59 65.83 106.14 C 51.26 101.93 38.92 90.74 33.41 76.60 C 30.26 68.92 29.18 60.41 30.30 52.19 C 32.29 40.66 41.93 30.84 53.36 28.44 Z" />
</g>
</svg>
