<?xml version="1.0" encoding="UTF-8" ?>
<!DOCTYPE svg PUBLIC "-//W3C//DTD SVG 1.1//EN" "http://www.w3.org/Graphics/SVG/1.1/DTD/svg11.dtd">
<svg width="800pt" height="500pt" viewBox="0 0 800 500" version="1.1" xmlns="http://www.w3.org/2000/svg">
<g id="#f6d46eff">
<path fill="#f6d46e" opacity="1.00" d=" M 76.50 0.00 L 723.49 0.00 C 739.94 0.90 756.15 6.64 769.13 16.86 C 787.52 30.97 798.93 53.38 800.00 76.50 L 800.00 423.49 C 799.09 439.94 793.37 456.16 783.13 469.13 C 769.03 487.52 746.61 498.92 723.50 500.00 L 76.51 500.00 C 60.06 499.09 43.84 493.37 30.87 483.13 C 12.47 469.03 1.09 446.61 0.00 423.50 L 0.00 76.51 C 1.08 53.39 12.47 30.97 30.87 16.86 C 43.84 6.63 60.05 0.90 76.50 0.00 M 53.38 28.50 C 41.38 31.07 31.50 41.69 30.09 53.93 C 28.82 67.67 33.91 81.70 43.15 91.88 C 52.27 101.79 65.50 107.83 78.98 107.99 C 291.32 108.02 503.66 107.98 716.00 108.01 C 723.11 108.25 730.33 107.55 737.03 105.04 C 756.79 98.21 770.77 77.87 770.05 56.98 C 770.21 42.03 756.97 28.37 742.04 27.99 C 514.01 28.01 285.98 28.01 57.96 27.99 C 56.42 28.01 54.88 28.13 53.38 28.50 Z" />
</g>
<g id="#dc193cff">
<path fill="#dc193c" opacity="1.00" d=" M 53.38 28.50 C 54.88 28.13 56.42 28.01 57.96 27.99 C 285.98 28.01 514.01 28.01 742.04 27.99 C 756.97 28.37 770.21 42.03 770.05 56.98 C 770.77 77.87 756.79 98.21 737.03 105.04 C 730.33 107.55 723.11 108.25 716.00 108.01 C 503.66 107.98 291.32 108.02 78.98 107.99 C 65.50 107.83 52.27 101.79 43.15 91.88 C 33.91 81.70 28.82 67.67 30.09 53.93 C 31.50 41.69 41.38 31.07 53.38 28.50 Z" />
</g>
</svg>
