<?xml version="1.0" encoding="UTF-8" ?>
<!DOCTYPE svg PUBLIC "-//W3C//DTD SVG 1.1//EN" "http://www.w3.org/Graphics/SVG/1.1/DTD/svg11.dtd">
<svg width="800pt" height="500pt" viewBox="0 0 800 500" version="1.1" xmlns="http://www.w3.org/2000/svg">
<g id="#f6d46eff">
<path fill="#f6d46e" opacity="1.00" d=" M 76.61 0.00 L 723.21 0.00 C 739.75 0.78 756.05 6.61 769.10 16.85 C 787.53 30.97 798.99 53.46 800.00 76.63 L 800.00 423.26 C 799.20 440.01 793.21 456.52 782.73 469.65 C 768.58 487.76 746.31 499.00 723.38 500.00 L 76.76 500.00 C 59.98 499.21 43.45 493.20 30.31 482.69 C 12.22 468.54 1.00 446.28 0.00 423.37 L 0.00 76.73 C 0.96 53.74 12.23 31.40 30.40 17.23 C 43.49 6.79 59.92 0.84 76.61 0.00 Z" />
</g>
</svg>
