<?xml version="1.0" encoding="UTF-8" standalone="no"?>
<!-- Created with Inkscape (http://www.inkscape.org/) -->

<svg
   xmlns:osb="http://www.openswatchbook.org/uri/2009/osb"
   xmlns:dc="http://purl.org/dc/elements/1.1/"
   xmlns:cc="http://creativecommons.org/ns#"
   xmlns:rdf="http://www.w3.org/1999/02/22-rdf-syntax-ns#"
   xmlns:svg="http://www.w3.org/2000/svg"
   xmlns="http://www.w3.org/2000/svg"
   xmlns:sodipodi="http://sodipodi.sourceforge.net/DTD/sodipodi-0.dtd"
   xmlns:inkscape="http://www.inkscape.org/namespaces/inkscape"
   width="206.74419mm"
   height="204.10715mm"
   viewBox="0 0 206.74419 204.10715"
   version="1.1"
   id="svg8"
   inkscape:version="0.92.4 (5da689c313, 2019-01-14)"
   sodipodi:docname="CloseButtonV20.svg">
  <defs
     id="defs2">
    <linearGradient
       id="linearGradient5177"
       osb:paint="solid">
      <stop
         style="stop-color:#fffaf0;stop-opacity:1;"
         offset="0"
         id="stop5175" />
    </linearGradient>
    <linearGradient
       id="linearGradient1384"
       osb:paint="solid">
      <stop
         style="stop-color:#726f9b;stop-opacity:1;"
         offset="0"
         id="stop1382" />
    </linearGradient>
    <linearGradient
       id="linearGradient1372"
       osb:paint="solid">
      <stop
         style="stop-color:#ff7f2a;stop-opacity:1;"
         offset="0"
         id="stop1370" />
    </linearGradient>
  </defs>
  <sodipodi:namedview
     id="base"
     pagecolor="#ffffff"
     bordercolor="#666666"
     borderopacity="1.0"
     inkscape:pageopacity="0.0"
     inkscape:pageshadow="2"
     inkscape:zoom="0.98994949"
     inkscape:cx="437.73546"
     inkscape:cy="377.73736"
     inkscape:document-units="mm"
     inkscape:current-layer="layer1"
     showgrid="false"
     inkscape:snap-text-baseline="false"
     inkscape:snap-center="false"
     inkscape:window-width="1920"
     inkscape:window-height="1137"
     inkscape:window-x="1912"
     inkscape:window-y="-8"
     inkscape:window-maximized="1"
     fit-margin-top="0"
     fit-margin-left="0"
     fit-margin-right="0"
     fit-margin-bottom="0" />
  <metadata
     id="metadata5">
    <rdf:RDF>
      <cc:Work
         rdf:about="">
        <dc:format>image/svg+xml</dc:format>
        <dc:type
           rdf:resource="http://purl.org/dc/dcmitype/StillImage" />
        <dc:title></dc:title>
      </cc:Work>
    </rdf:RDF>
  </metadata>
  <g
     inkscape:label="Ebene 1"
     inkscape:groupmode="layer"
     id="layer1"
     transform="translate(-66.175514,-60.550583)">
    <ellipse
       style="fill:#1f1e1e;fill-opacity:1;stroke:none;stroke-width:0.36918601"
       id="path1366-8"
       cx="169.54761"
       cy="162.60416"
       rx="103.37209"
       ry="102.05357" />
    <ellipse
       style="fill:#fffaf0;fill-opacity:1;stroke:none;stroke-width:0.26458332;stroke-opacity:0"
       id="path1366"
       cx="169.54761"
       cy="162.60416"
       rx="74.083336"
       ry="73.13839" />
    <path
       style="opacity:0;fill:#ff7f2a;fill-opacity:1;stroke:none;stroke-width:1.42857146"
       d="M 508.70252,660.8958 C 488.68115,658.41615 470.18267,654.21564 452.15101,648.05444 353.54832,614.36308 282.20999,529.6024 266.39566,427.34911 c -2.78971,-18.03786 -3.15795,-58.18773 -0.69443,-75.71428 11.248,-80.02312 55.54982,-149.73449 123.71558,-194.67336 67.67906,-44.61799 156.58809,-57.144446 235.59033,-33.19248 92.80161,28.13567 165.32136,103.48529 188.64571,196.00705 10.74922,42.63946 10.77729,91.94487 0.0767,134.71593 -18.95576,75.76718 -73.39629,143.2584 -144.31276,178.90793 -47.25313,23.75401 -107.58503,34.07593 -160.71429,27.4959 z"
       id="path1368"
       inkscape:connector-curvature="0"
       transform="matrix(0.26458333,0,0,0.26458333,0,87)" />
    <path
       style="color:#000000;font-style:normal;font-variant:normal;font-weight:normal;font-stretch:normal;font-size:medium;line-height:normal;font-family:sans-serif;font-variant-ligatures:normal;font-variant-position:normal;font-variant-caps:normal;font-variant-numeric:normal;font-variant-alternates:normal;font-feature-settings:normal;text-indent:0;text-align:start;text-decoration:none;text-decoration-line:none;text-decoration-style:solid;text-decoration-color:#000000;letter-spacing:normal;word-spacing:normal;text-transform:none;writing-mode:lr-tb;direction:ltr;text-orientation:mixed;dominant-baseline:auto;baseline-shift:baseline;text-anchor:start;white-space:normal;shape-padding:0;clip-rule:nonzero;display:inline;overflow:visible;visibility:visible;opacity:1;isolation:auto;mix-blend-mode:normal;color-interpolation:sRGB;color-interpolation-filters:linearRGB;solid-color:#000000;solid-opacity:1;vector-effect:none;fill:#1f1e1e;fill-opacity:1;fill-rule:nonzero;stroke:none;stroke-width:102.92059326;stroke-linecap:round;stroke-linejoin:miter;stroke-miterlimit:4;stroke-dasharray:none;stroke-dashoffset:0;stroke-opacity:1;color-rendering:auto;image-rendering:auto;shape-rendering:auto;text-rendering:auto;enable-background:accumulate"
       d="M 266.88672 210.79883 A 51.465441 51.465441 0 0 0 230.83203 299.08594 L 317.41602 386.05859 L 231.46094 471.62891 A 51.465441 51.465441 0 1 0 304.06836 544.57031 L 390.02734 458.99609 L 475.60156 544.95312 A 51.465441 51.465441 0 1 0 548.54102 472.33789 L 462.9668 386.38281 L 549.9375 299.80078 A 51.465441 51.465441 0 0 0 512.74023 211.37305 A 51.465441 51.465441 0 0 0 477.32812 226.86133 L 390.35547 313.44531 L 303.77344 226.47656 A 51.465441 51.465441 0 0 0 266.88672 210.79883 z "
       transform="matrix(0.26458333,0,0,0.26458333,66.175514,60.550583)"
       id="path1380" />
    <path
       style="opacity:0;fill:#ffff00;fill-opacity:1;stroke:#fffaf0;stroke-width:107.9865036;stroke-linecap:round;stroke-miterlimit:4;stroke-dasharray:none;stroke-opacity:1;paint-order:markers fill stroke"
       d="M 349.66885,633.30166 C 298.9928,626.28203 251.2007,606.56164 211.75117,576.39287 198.19964,566.02944 177.29089,545.28227 165.28645,530.28724 133.34168,490.3843 114.00673,445.03761 107.31989,394.33701 c -2.73835,-20.76255 -2.05435,-62.26295 1.32314,-80.27857 14.25568,-76.0404 55.88184,-140.30199 117.89006,-181.99622 110.36379,-74.208447 256.78741,-61.807339 352.17148,29.82658 86.78357,83.37156 109.4588,210.49173 56.70295,317.88393 -39.07817,79.54931 -113.77392,135.28778 -202.94207,151.43675 -15.64923,2.83419 -67.907,4.15469 -82.7966,2.09218 z"
       id="path1448"
       inkscape:connector-curvature="0"
       transform="matrix(0.26458333,0,0,0.26458333,69.547615,62.604158)" />
    <path
       style="opacity:0;fill:#ffff00;fill-opacity:1;stroke:#fffaf0;stroke-width:107.9865036;stroke-linecap:round;stroke-miterlimit:4;stroke-dasharray:none;stroke-opacity:1;paint-order:markers fill stroke"
       d="M 349.66885,633.30166 C 298.9928,626.28203 251.2007,606.56164 211.75117,576.39287 198.19964,566.02944 177.29089,545.28227 165.28645,530.28724 133.34168,490.3843 114.00673,445.03761 107.31989,394.33701 c -2.73835,-20.76255 -2.05435,-62.26295 1.32314,-80.27857 14.25568,-76.0404 55.88184,-140.30199 117.89006,-181.99622 110.36379,-74.208447 256.78741,-61.807339 352.17148,29.82658 86.78357,83.37156 109.4588,210.49173 56.70295,317.88393 -39.07817,79.54931 -113.77392,135.28778 -202.94207,151.43675 -15.64923,2.83419 -67.907,4.15469 -82.7966,2.09218 z"
       id="path1450"
       inkscape:connector-curvature="0"
       transform="matrix(0.26458333,0,0,0.26458333,69.547615,62.604158)" />
    <path
       style="opacity:0;fill:#ffff00;fill-opacity:1;stroke:#fffaf0;stroke-width:107.9865036;stroke-linecap:round;stroke-miterlimit:4;stroke-dasharray:none;stroke-opacity:1;paint-order:markers fill stroke"
       d="M 349.66885,633.30166 C 298.9928,626.28203 251.2007,606.56164 211.75117,576.39287 198.19964,566.02944 177.29089,545.28227 165.28645,530.28724 133.34168,490.3843 114.00673,445.03761 107.31989,394.33701 c -2.73835,-20.76255 -2.05435,-62.26295 1.32314,-80.27857 14.25568,-76.0404 55.88184,-140.30199 117.89006,-181.99622 110.36379,-74.208447 256.78741,-61.807339 352.17148,29.82658 86.78357,83.37156 109.4588,210.49173 56.70295,317.88393 -39.07817,79.54931 -113.77392,135.28778 -202.94207,151.43675 -15.64923,2.83419 -67.907,4.15469 -82.7966,2.09218 z"
       id="path1452"
       inkscape:connector-curvature="0"
       transform="matrix(0.26458333,0,0,0.26458333,69.547615,62.604158)" />
  </g>
</svg>
