<?xml version="1.0" encoding="UTF-8" standalone="no"?>
<!-- Created with Inkscape (http://www.inkscape.org/) -->

<svg
   xmlns:osb="http://www.openswatchbook.org/uri/2009/osb"
   xmlns:dc="http://purl.org/dc/elements/1.1/"
   xmlns:cc="http://creativecommons.org/ns#"
   xmlns:rdf="http://www.w3.org/1999/02/22-rdf-syntax-ns#"
   xmlns:svg="http://www.w3.org/2000/svg"
   xmlns="http://www.w3.org/2000/svg"
   xmlns:sodipodi="http://sodipodi.sourceforge.net/DTD/sodipodi-0.dtd"
   xmlns:inkscape="http://www.inkscape.org/namespaces/inkscape"
   width="148.16667mm"
   height="146.27678mm"
   viewBox="0 0 148.16667 146.27678"
   version="1.1"
   id="svg8"
   inkscape:version="0.92.4 (5da689c313, 2019-01-14)"
   sodipodi:docname="CloseButtonV3.svg">
  <defs
     id="defs2">
    <linearGradient
       id="linearGradient1384"
       osb:paint="solid">
      <stop
         style="stop-color:#726f9b;stop-opacity:1;"
         offset="0"
         id="stop1382" />
    </linearGradient>
    <linearGradient
       id="linearGradient1372"
       osb:paint="solid">
      <stop
         style="stop-color:#ff7f2a;stop-opacity:1;"
         offset="0"
         id="stop1370" />
    </linearGradient>
  </defs>
  <sodipodi:namedview
     id="base"
     pagecolor="#ffffff"
     bordercolor="#666666"
     borderopacity="1.0"
     inkscape:pageopacity="0.0"
     inkscape:pageshadow="2"
     inkscape:zoom="1.4"
     inkscape:cx="416.56028"
     inkscape:cy="257.42977"
     inkscape:document-units="mm"
     inkscape:current-layer="layer1"
     showgrid="false"
     inkscape:snap-text-baseline="false"
     inkscape:snap-center="false"
     inkscape:window-width="1920"
     inkscape:window-height="1137"
     inkscape:window-x="1912"
     inkscape:window-y="-8"
     inkscape:window-maximized="1"
     fit-margin-top="0"
     fit-margin-left="0"
     fit-margin-right="0"
     fit-margin-bottom="0" />
  <metadata
     id="metadata5">
    <rdf:RDF>
      <cc:Work
         rdf:about="">
        <dc:format>image/svg+xml</dc:format>
        <dc:type
           rdf:resource="http://purl.org/dc/dcmitype/StillImage" />
        <dc:title></dc:title>
      </cc:Work>
    </rdf:RDF>
  </metadata>
  <g
     inkscape:label="Ebene 1"
     inkscape:groupmode="layer"
     id="layer1"
     transform="translate(-69.547615,-116.32738)">
    <ellipse
       style="fill:#1f1e1e;fill-opacity:1;stroke:none;stroke-width:0.26458332"
       id="path1366"
       cx="143.63095"
       cy="189.46577"
       rx="74.083336"
       ry="73.13839" />
    <path
       style="opacity:0;fill:#ff7f2a;fill-opacity:1;stroke:none;stroke-width:1.42857146"
       d="M 508.70252,660.8958 C 488.68115,658.41615 470.18267,654.21564 452.15101,648.05444 353.54832,614.36308 282.20999,529.6024 266.39566,427.34911 c -2.78971,-18.03786 -3.15795,-58.18773 -0.69443,-75.71428 11.248,-80.02312 55.54982,-149.73449 123.71558,-194.67336 67.67906,-44.61799 156.58809,-57.144446 235.59033,-33.19248 92.80161,28.13567 165.32136,103.48529 188.64571,196.00705 10.74922,42.63946 10.77729,91.94487 0.0767,134.71593 -18.95576,75.76718 -73.39629,143.2584 -144.31276,178.90793 -47.25313,23.75401 -107.58503,34.07593 -160.71429,27.4959 z"
       id="path1368"
       inkscape:connector-curvature="0"
       transform="matrix(0.26458333,0,0,0.26458333,0,87)" />
    <path
       style="color:#000000;font-style:normal;font-variant:normal;font-weight:normal;font-stretch:normal;font-size:medium;line-height:normal;font-family:sans-serif;font-variant-ligatures:normal;font-variant-position:normal;font-variant-caps:normal;font-variant-numeric:normal;font-variant-alternates:normal;font-feature-settings:normal;text-indent:0;text-align:start;text-decoration:none;text-decoration-line:none;text-decoration-style:solid;text-decoration-color:#000000;letter-spacing:normal;word-spacing:normal;text-transform:none;writing-mode:lr-tb;direction:ltr;text-orientation:mixed;dominant-baseline:auto;baseline-shift:baseline;text-anchor:start;white-space:normal;shape-padding:0;clip-rule:nonzero;display:inline;overflow:visible;visibility:visible;opacity:1;isolation:auto;mix-blend-mode:normal;color-interpolation:sRGB;color-interpolation-filters:linearRGB;solid-color:#000000;solid-opacity:1;vector-effect:none;fill:#fffaf0;fill-opacity:0.98392284;fill-rule:nonzero;stroke:none;stroke-width:75.59055328;stroke-linecap:round;stroke-linejoin:miter;stroke-miterlimit:4;stroke-dasharray:none;stroke-dashoffset:0;stroke-opacity:0.62700963;color-rendering:auto;image-rendering:auto;shape-rendering:auto;text-rendering:auto;enable-background:accumulate"
       d="M 166.53906 126.26172 A 37.799055 37.799055 0 0 0 140.06055 191.10547 L 225.75 277.18555 L 139.67773 362.875 A 37.799055 37.799055 0 1 0 193.01172 416.44531 L 279.08398 330.75586 L 364.77344 416.82812 A 37.799055 37.799055 0 1 0 418.34375 363.49414 L 332.6543 277.42188 L 418.73438 191.72461 A 37.799055 37.799055 0 1 0 365.40039 138.1543 L 279.32031 223.85156 L 193.63086 137.77148 A 37.799055 37.799055 0 0 0 166.53906 126.26172 z "
       transform="matrix(0.26458333,0,0,0.26458333,69.547615,116.32738)"
       id="path1380-6" />
  </g>
</svg>
