<svg xmlns="http://www.w3.org/2000/svg" xmlns:xlink="http://www.w3.org/1999/xlink" xmlns:lucid="lucid" width="1760" height="1360"><g transform="translate(0 0)" lucid:page-tab-id="bnFes7fgtGc7"><path d="M240 270.7v10.07m0 10.08V311m0 10.1v20.16m0 10.08v20.16m0 10.08v20.17m0 10.08V432m0 10.07v20.17m0 10.08v20.16m0 10.08v20.16m0 10.1v20.15m0 10.08v20.16m0 10.1v20.16m0 10.08v20.16m0 10.08v20.17m0 10.08v20.16m0 10.07v20.17m0 10.08v20.16m0 10.08v20.17m0 10.08v20.17m0 10.08v20.16m0 10.1v20.16m0 10.08v20.16m0 10.08v20.17m0 10.08v20.16m0 10.07v20.17m0 10.08v20.16m0 10.08v20.17m0 10.08v20.17m0 10.08v20.16m0 10.1v20.16m0 10.08v20.16m0 10.1v20.15m0 10.08v20.16m0 10.07v20.17m0 10.08V1299" stroke="#999" stroke-width="2" fill="none"/><path d="M241 270.7h-2v-1h2z" fill="#999"/><path d="M240 1298.97v1.03" stroke="#999" stroke-width="2" fill="none"/><path d="M221.85 305c0-2.76 2.24-5 5-5h30c2.76 0 5 2.24 5 5v350c0 2.76-2.24 5-5 5h-30c-2.76 0-5-2.24-5-5z" stroke="#000" stroke-opacity="0" stroke-width="2" fill="#d2d3d5"/><path d="M900 270.5v10.08m0 10.1v20.15m0 10.1v20.15m0 10.1v20.15m0 10.1v20.15m0 10.1v20.15m0 10.1v20.15m0 10.1v20.15m0 10.1v20.15m0 10.1v20.15m0 10.1v20.15m0 10.1v20.15m0 10.1v20.15m0 10.1v20.15m0 10.1v20.15m0 10.1v20.15m0 10.1v20.15m0 10.1v20.15m0 10.1v20.15m0 10.1v20.15m0 10.1v20.15m0 10.1v20.15m0 10.1v20.15m0 10.1v20.15m0 10.1v20.15m0 10.1v20.15m0 10.1v20.15m0 10.1v20.15m0 10.1v20.15m0 10.1v20.15m0 10.1v20.15m0 10.1v20.15m0 10.1v20.15m0 10.1v20.15m0 10.1V1299" stroke="#999" stroke-width="2" fill="none"/><path d="M901 270.53h-2v-1.03h2z" fill="#999"/><path d="M900 1298.97v1.03" stroke="#999" stroke-width="2" fill="none"/><path d="M881.85 345c0-2.76 2.24-5 5-5h30c2.76 0 5 2.24 5 5v250c0 2.76-2.24 5-5 5h-30c-2.76 0-5-2.24-5-5z" stroke="#000" stroke-opacity="0" stroke-width="2" fill="#d2d3d5"/><path d="M262.85 373.15h617.2" stroke="#999" stroke-width="2" fill="none"/><path d="M262.88 374.15h-1.03v-2h1.03z" fill="#999"/><path d="M862.67 383.33l17.22-10.18-17.23-10.18" stroke="#999" stroke-width="2" fill="none"/><use xlink:href="#a" transform="matrix(1,0,0,1,440.6534472146567,347.54851858419613) translate(0 14.4)"/><path d="M1550 281v9.98m0 9.98v19.96m0 9.98v19.96m0 9.98v19.96m0 9.98v19.97m0 9.98v19.96m0 9.97v19.96m0 9.98v19.97m0 9.98v19.96m0 10v19.95m0 9.98v19.96m0 9.97v19.96m0 9.98v19.97m0 9.98v19.97m0 9.98v19.96m0 9.98v19.96m0 9.98v19.96m0 9.98v19.96m0 9.98v19.96m0 9.98v19.96m0 9.98v19.96m0 9.98v19.97m0 9.98v19.96m0 9.97v19.96m0 9.98v19.97m0 9.98v19.96m0 10v19.95m0 9.98v19.96m0 9.97v19.96m0 9.98v19.97m0 9.98v19.97m0 9.98v19.96m0 9.98v19.96m0 9.98v19.96m0 9.98v9.98" stroke="#999" stroke-width="2" fill="none"/><path d="M1551 281.03h-2V280h2z" fill="#999"/><path d="M1550 1298.97v1.03" stroke="#999" stroke-width="2" fill="none"/><path d="M120 154.7c0-2.77 2.24-5 5-5h230c2.76 0 5 2.23 5 5v110c0 2.75-2.24 5-5 5H125c-2.76 0-5-2.25-5-5z" stroke="#000" stroke-opacity="0" stroke-width="2" fill="#99d2f2"/><use xlink:href="#b" transform="matrix(1,0,0,1,120,149.6875) translate(74.13000000000001 51.9)"/><use xlink:href="#c" transform="matrix(1,0,0,1,120,149.6875) translate(120.03 51.9)"/><use xlink:href="#d" transform="matrix(1,0,0,1,120,149.6875) translate(16.330000000000005 73.5)"/><path d="M820 154.5c0-2.76 2.24-5 5-5h150c2.76 0 5 2.24 5 5v110c0 2.76-2.24 5-5 5H825c-2.76 0-5-2.24-5-5z" stroke="#000" stroke-opacity="0" stroke-width="2" fill="#99d5ca"/><use xlink:href="#e" transform="matrix(1,0,0,1,820,149.49999999999955) translate(11.679999999999987 63.15)"/><use xlink:href="#f" transform="matrix(1,0,0,1,820,149.49999999999955) translate(69.57999999999998 63.15)"/><path d="M1470 165c0-2.76 2.24-5 5-5h150c2.76 0 5 2.24 5 5v110c0 2.76-2.24 5-5 5h-150c-2.76 0-5-2.24-5-5z" stroke="#000" stroke-opacity="0" stroke-width="2" fill="#ffd99a"/><use xlink:href="#g" transform="matrix(1,0,0,1,1470,160) translate(52.73 51.9)"/><use xlink:href="#h" transform="matrix(1,0,0,1,1470,160) translate(21.62999999999999 73.5)"/><path d="M400 59.77c0-4.42 3.58-8 8-8h964c4.42 0 8 3.58 8 8v57.6c0 4.43-3.58 8-8 8H408c-4.42 0-8-3.57-8-8z" stroke="#000" stroke-opacity="0" stroke-width="2" fill="#fff" fill-opacity="0"/><use xlink:href="#i" transform="matrix(1,0,0,1,404,55.77094531166637) translate(126.56925925925924 38.09527777777778)"/><use xlink:href="#j" transform="matrix(1,0,0,1,404,55.77094531166637) translate(180.3248148148148 38.09527777777778)"/><use xlink:href="#k" transform="matrix(1,0,0,1,404,55.77094531166637) translate(308.3038271604938 38.09527777777778)"/><use xlink:href="#l" transform="matrix(1,0,0,1,404,55.77094531166637) translate(417.41740740740744 38.09527777777778)"/><use xlink:href="#m" transform="matrix(1,0,0,1,404,55.77094531166637) translate(449.3211111111111 38.09527777777778)"/><use xlink:href="#n" transform="matrix(1,0,0,1,404,55.77094531166637) translate(495.7927160493827 38.09527777777778)"/><use xlink:href="#o" transform="matrix(1,0,0,1,404,55.77094531166637) translate(658.7346913580247 38.09527777777778)"/><path d="M663.65 107.8H1103M663.68 107.8h-1.03M1102.97 107.8h1.03" stroke="#b2b2b2" stroke-width="2" fill="none"/><path d="M460 117.16c0-4.42 3.58-8 8-8h837.7c4.43 0 8 3.58 8 8V120c0 4.42-3.57 8-8 8H468c-4.42 0-8-3.58-8-8z" stroke="#000" stroke-opacity="0" stroke-width="2" fill="#fff" fill-opacity="0"/><use xlink:href="#p" transform="matrix(1,0,0,1,464,113.15522395678234) translate(377.08566872427986 14.917037037037037)"/><use xlink:href="#q" transform="matrix(1,0,0,1,464,113.15522395678234) translate(381.3346399176955 14.917037037037037)"/><use xlink:href="#r" transform="matrix(1,0,0,1,464,113.15522395678234) translate(416.04873456790125 14.917037037037037)"/><use xlink:href="#s" transform="matrix(1,0,0,1,464,113.15522395678234) translate(441.54256172839507 14.917037037037037)"/><path d="M881.35 466.9h-618.6" stroke="#333" fill="none"/><path d="M881.85 467.4h-.5v-1h.5z" fill="#333"/><path d="M280.05 456.73l-17.2 10.18 17.2 10.2" stroke="#333" fill="none"/><use xlink:href="#t" transform="matrix(1,0,0,1,406.20344721465665,470.9093142570176) translate(0.0049999999999954525 14.4)"/><path d="M881.35 558.66h-618.6" stroke="#333" fill="none"/><path d="M881.85 559.16h-.5v-1h.5z" fill="#333"/><path d="M280.05 548.48l-17.2 10.18 17.2 10.18" stroke="#333" fill="none"/><use xlink:href="#u" transform="matrix(1,0,0,1,391.2284472146567,562.66054789882) translate(0.0049999999999954525 14.4)"/><path d="M922.35 562.26h626.74" stroke="#333" fill="none"/><path d="M922.37 562.76h-.52v-1h.52z" fill="#333"/><path d="M1531.8 572.44l17.22-10.18-17.22-10.18" stroke="#333" fill="none"/><use xlink:href="#u" transform="matrix(1,0,0,1,1093.0980082038436,536.658635492616) translate(0.0049999999999954525 14.4)"/><path d="M881.85 685c0-2.76 2.24-5 5-5h30c2.76 0 5 2.24 5 5v150c0 2.76-2.24 5-5 5h-30c-2.76 0-5-2.24-5-5zM1530 645c0-2.76 2.24-5 5-5h30c2.76 0 5 2.24 5 5v230c0 2.76-2.24 5-5 5h-30c-2.76 0-5-2.24-5-5z" stroke="#000" stroke-opacity="0" stroke-width="2" fill="#d2d3d5"/><path d="M1529.5 714.12H922.76" stroke="#333" fill="none"/><path d="M1530 714.62h-.5v-1h.5z" fill="#333"/><path d="M940.05 703.94l-17.2 10.18 17.2 10.2" stroke="#333" fill="none"/><use xlink:href="#v" transform="matrix(1,0,0,1,1140.5267236073282,718.1247670583477) translate(0.0049999999999954525 14.4)"/><path d="M1180 620h238l12 12v48h-250z" stroke="#333" fill="#fff"/><path d="M1418 620.48V632h11.52" stroke="#333" fill="#fff"/><use xlink:href="#w" transform="matrix(1,0,0,1,1185,625) translate(16.27500000000002 30.025)"/><path d="M1304.58 680.78l-49.4 33.07" stroke="#333" fill="none"/><path d="M1304.85 681.2l-.47-.7h1.52z" fill="#333"/><path d="M1255.2 713.84l-.43.28M922.35 798.78h606.74" stroke="#333" fill="none"/><path d="M922.37 799.28h-.52v-1h.52z" fill="#333"/><path d="M1511.8 808.96l17.22-10.18-17.22-10.2" stroke="#333" fill="none"/><use xlink:href="#u" transform="matrix(1,0,0,1,1045.3017236073283,802.7754458227494) translate(0.0049999999999954525 14.4)"/><path d="M881.35 805.97H240.9" stroke="#333" fill="none"/><path d="M881.85 806.47h-.5v-1h.5z" fill="#333"/><path d="M258.2 795.8l-17.22 10.17 17.22 10.18" stroke="#333" fill="none"/><use xlink:href="#u" transform="matrix(1,0,0,1,380.30172360732837,809.9716210103417) translate(0.0049999999999954525 14.4)"/><path d="M880 945c0-2.76 2.24-5 5-5h30c2.76 0 5 2.24 5 5v120c0 2.76-2.24 5-5 5h-30c-2.76 0-5-2.24-5-5zM881.85 1125c0-2.76 2.24-5 5-5h30c2.76 0 5 2.24 5 5v130c0 2.76-2.24 5-5 5h-30c-2.76 0-5-2.24-5-5zM1530 925c0-2.76 2.24-5 5-5h30c2.76 0 5 2.24 5 5v170c0 2.76-2.24 5-5 5h-30c-2.76 0-5-2.24-5-5zM221.85 1105c0-2.76 2.24-5 5-5h30c2.76 0 5 2.24 5 5v170c0 2.76-2.24 5-5 5h-30c-2.76 0-5-2.24-5-5z" stroke="#000" stroke-opacity="0" stroke-width="2" fill="#d2d3d5"/><path d="M1529.5 967.68H920.9" stroke="#333" fill="none"/><path d="M1530 968.18h-.5v-1h.5z" fill="#333"/><path d="M938.2 957.5l-17.22 10.18 17.22 10.18" stroke="#333" fill="none"/><use xlink:href="#x" transform="matrix(1,0,0,1,1134.1,971.6750444970484) translate(0.0049999999999954525 14.4)"/><path d="M920.5 1041.44h608.6" stroke="#333" fill="none"/><path d="M920.5 1041.94h-.5v-1h.5z" fill="#333"/><path d="M1511.8 1051.62l17.22-10.18-17.22-10.2" stroke="#333" fill="none"/><use xlink:href="#y" transform="matrix(1,0,0,1,1047.3500000000001,1045.4358401698696) translate(0.0049999999999954525 14.4)"/><path d="M262.35 1156.8h618.6" stroke="#333" fill="none"/><path d="M262.37 1157.3h-.52v-1h.52z" fill="#333"/><path d="M863.66 1166.97l17.2-10.18-17.2-10.2" stroke="#333" fill="none"/><g><use xlink:href="#z" transform="matrix(1,0,0,1,428.77844721465664,1131.1851614054683) translate(0.0049999999999954525 14.4)"/></g><path d="M881.35 1226.95h-618.6" stroke="#333" fill="none"/><path d="M881.85 1227.45h-.5v-1h.5z" fill="#333"/><path d="M280.05 1216.77l-17.2 10.18 17.2 10.18" stroke="#333" fill="none"/><g><use xlink:href="#y" transform="matrix(1,0,0,1,394.20344721465665,1230.9478694844934) translate(0.0049999999999954525 14.4)"/></g><path d="M1200 880h238l12 12v48h-250z" stroke="#333" fill="#fff"/><path d="M1438 880.48V892h11.52" stroke="#333" fill="#fff"/><g><use xlink:href="#A" transform="matrix(1,0,0,1,1205,885) translate(8.750000000000014 30.025)"/></g><path d="M1324.57 940.75l-46.3 26.68" stroke="#333" fill="none"/><path d="M1324.8 941.2l-.4-.7h1.6z" fill="#333"/><path d="M1278.27 967.42l-.45.26" stroke="#333" fill="none"/><defs><path fill="#333" d="M185-189c-5-48-123-54-124 2 14 75 158 14 163 119 3 78-121 87-175 55-17-10-28-26-33-46l33-7c5 56 141 63 141-1 0-78-155-14-162-118-5-82 145-84 179-34 5 7 8 16 11 25" id="B"/><path fill="#333" d="M100-194c63 0 86 42 84 106H49c0 40 14 67 53 68 26 1 43-12 49-29l28 8c-11 28-37 45-77 45C44 4 14-33 15-96c1-61 26-98 85-98zm52 81c6-60-76-77-97-28-3 7-6 17-6 28h103" id="C"/><path fill="#333" d="M117-194c89-4 53 116 60 194h-32v-121c0-31-8-49-39-48C34-167 62-67 57 0H25l-1-190h30c1 10-1 24 2 32 11-22 29-35 61-36" id="D"/><path fill="#333" d="M85-194c31 0 48 13 60 33l-1-100h32l1 261h-30c-2-10 0-23-3-31C134-8 116 4 85 4 32 4 16-35 15-94c0-66 23-100 70-100zm9 24c-40 0-46 34-46 75 0 40 6 74 45 74 42 0 51-32 51-76 0-42-9-74-50-73" id="E"/><path fill="#333" d="M266 0h-40l-56-210L115 0H75L2-248h35L96-30l15-64 43-154h32l59 218 59-218h35" id="F"/><path fill="#333" d="M115-194c53 0 69 39 70 98 0 66-23 100-70 100C84 3 66-7 56-30L54 0H23l1-261h32v101c10-23 28-34 59-34zm-8 174c40 0 45-34 45-75 0-40-5-75-45-74-42 0-51 32-51 76 0 43 10 73 51 73" id="G"/><path fill="#333" d="M100-194c62-1 85 37 85 99 1 63-27 99-86 99S16-35 15-95c0-66 28-99 85-99zM99-20c44 1 53-31 53-75 0-43-8-75-51-75s-53 32-53 75 10 74 51 75" id="H"/><path fill="#333" d="M96-169c-40 0-48 33-48 73s9 75 48 75c24 0 41-14 43-38l32 2c-6 37-31 61-74 61-59 0-76-41-82-99-10-93 101-131 147-64 4 7 5 14 7 22l-32 3c-4-21-16-35-41-35" id="I"/><path fill="#333" d="M143 0L79-87 56-68V0H24v-261h32v163l83-92h37l-77 82L181 0h-38" id="J"/><path fill="#333" d="M59-47c-2 24 18 29 38 22v24C64 9 27 4 27-40v-127H5v-23h24l9-43h21v43h35v23H59v120" id="K"/><path fill="#333" d="M240 0l2-218c-23 76-54 145-80 218h-23L58-218 59 0H30v-248h44l77 211c21-75 51-140 76-211h43V0h-30" id="L"/><path fill="#333" d="M135-143c-3-34-86-38-87 0 15 53 115 12 119 90S17 21 10-45l28-5c4 36 97 45 98 0-10-56-113-15-118-90-4-57 82-63 122-42 12 7 21 19 24 35" id="M"/><path fill="#333" d="M141-36C126-15 110 5 73 4 37 3 15-17 15-53c-1-64 63-63 125-63 3-35-9-54-41-54-24 1-41 7-42 31l-33-3c5-37 33-52 76-52 45 0 72 20 72 64v82c-1 20 7 32 28 27v20c-31 9-61-2-59-35zM48-53c0 20 12 33 32 33 41-3 63-29 60-74-43 2-92-5-92 41" id="N"/><path fill="#333" d="M177-190C167-65 218 103 67 71c-23-6-38-20-44-43l32-5c15 47 100 32 89-28v-30C133-14 115 1 83 1 29 1 15-40 15-95c0-56 16-97 71-98 29-1 48 16 59 35 1-10 0-23 2-32h30zM94-22c36 0 50-32 50-73 0-42-14-75-50-75-39 0-46 34-46 75s6 73 46 73" id="O"/><path fill="#333" d="M87 75C49 33 22-17 22-94c0-76 28-126 65-167h31c-38 41-64 92-64 168S80 34 118 75H87" id="P"/><path fill="#333" d="M114-163C36-179 61-72 57 0H25l-1-190h30c1 12-1 29 2 39 6-27 23-49 58-41v29" id="Q"/><path fill="#333" d="M33-261c38 41 65 92 65 168S71 34 33 75H2C39 34 66-17 66-93S39-220 2-261h31" id="R"/><g id="a"><use transform="matrix(0.05,0,0,0.05,0,0)" xlink:href="#B"/><use transform="matrix(0.05,0,0,0.05,12,0)" xlink:href="#C"/><use transform="matrix(0.05,0,0,0.05,22,0)" xlink:href="#D"/><use transform="matrix(0.05,0,0,0.05,32,0)" xlink:href="#E"/><use transform="matrix(0.05,0,0,0.05,42,0)" xlink:href="#F"/><use transform="matrix(0.05,0,0,0.05,58.599999999999994,0)" xlink:href="#C"/><use transform="matrix(0.05,0,0,0.05,68.6,0)" xlink:href="#G"/><use transform="matrix(0.05,0,0,0.05,78.6,0)" xlink:href="#B"/><use transform="matrix(0.05,0,0,0.05,90.6,0)" xlink:href="#H"/><use transform="matrix(0.05,0,0,0.05,100.6,0)" xlink:href="#I"/><use transform="matrix(0.05,0,0,0.05,109.59999999999998,0)" xlink:href="#J"/><use transform="matrix(0.05,0,0,0.05,118.59999999999998,0)" xlink:href="#C"/><use transform="matrix(0.05,0,0,0.05,128.6,0)" xlink:href="#K"/><use transform="matrix(0.05,0,0,0.05,133.6,0)" xlink:href="#L"/><use transform="matrix(0.05,0,0,0.05,148.54999999999998,0)" xlink:href="#C"/><use transform="matrix(0.05,0,0,0.05,158.54999999999998,0)" xlink:href="#M"/><use transform="matrix(0.05,0,0,0.05,167.54999999999998,0)" xlink:href="#M"/><use transform="matrix(0.05,0,0,0.05,176.54999999999998,0)" xlink:href="#N"/><use transform="matrix(0.05,0,0,0.05,186.54999999999998,0)" xlink:href="#O"/><use transform="matrix(0.05,0,0,0.05,196.54999999999998,0)" xlink:href="#C"/><use transform="matrix(0.05,0,0,0.05,206.54999999999995,0)" xlink:href="#P"/><use transform="matrix(0.05,0,0,0.05,212.49999999999997,0)" xlink:href="#M"/><use transform="matrix(0.05,0,0,0.05,221.49999999999997,0)" xlink:href="#I"/><use transform="matrix(0.05,0,0,0.05,230.49999999999997,0)" xlink:href="#H"/><use transform="matrix(0.05,0,0,0.05,240.49999999999997,0)" xlink:href="#Q"/><use transform="matrix(0.05,0,0,0.05,246.44999999999996,0)" xlink:href="#C"/><use transform="matrix(0.05,0,0,0.05,256.44999999999993,0)" xlink:href="#R"/></g><path fill="#333" d="M232-93c-1 65-40 97-104 97C67 4 28-28 28-90v-158h33c8 89-33 224 67 224 102 0 64-133 71-224h33v155" id="S"/><path fill="#333" d="M24-231v-30h32v30H24zM24 0v-190h32V0H24" id="T"/><path fill="#333" d="M179-190L93 31C79 59 56 82 12 73V49c39 6 53-20 64-50L1-190h34L92-34l54-156h33" id="U"/><g id="b"><use transform="matrix(0.05,0,0,0.05,0,0)" xlink:href="#S"/><use transform="matrix(0.05,0,0,0.05,12.950000000000001,0)" xlink:href="#D"/><use transform="matrix(0.05,0,0,0.05,22.950000000000003,0)" xlink:href="#T"/><use transform="matrix(0.05,0,0,0.05,26.900000000000002,0)" xlink:href="#K"/><use transform="matrix(0.05,0,0,0.05,31.900000000000002,0)" xlink:href="#U"/></g><path fill="#333" d="M212-179c-10-28-35-45-73-45-59 0-87 40-87 99 0 60 29 101 89 101 43 0 62-24 78-52l27 14C228-24 195 4 139 4 59 4 22-46 18-125c-6-104 99-153 187-111 19 9 31 26 39 46" id="V"/><path fill="#333" d="M24 0v-261h32V0H24" id="W"/><g id="c"><use transform="matrix(0.05,0,0,0.05,0,0)" xlink:href="#V"/><use transform="matrix(0.05,0,0,0.05,12.950000000000001,0)" xlink:href="#W"/><use transform="matrix(0.05,0,0,0.05,16.900000000000002,0)" xlink:href="#T"/><use transform="matrix(0.05,0,0,0.05,20.85,0)" xlink:href="#C"/><use transform="matrix(0.05,0,0,0.05,30.85,0)" xlink:href="#D"/><use transform="matrix(0.05,0,0,0.05,40.85,0)" xlink:href="#K"/></g><path fill="#333" d="M197 0v-115H63V0H30v-248h33v105h134v-105h34V0h-34" id="X"/><path fill="#333" d="M106-169C34-169 62-67 57 0H25v-261h32l-1 103c12-21 28-36 61-36 89 0 53 116 60 194h-32v-121c2-32-8-49-39-48" id="Y"/><path fill="#333" d="M33 0v-38h34V0H33" id="Z"/><g id="d"><use transform="matrix(0.05,0,0,0.05,0,0)" xlink:href="#P"/><use transform="matrix(0.05,0,0,0.05,5.95,0)" xlink:href="#X"/><use transform="matrix(0.05,0,0,0.05,18.900000000000002,0)" xlink:href="#T"/><use transform="matrix(0.05,0,0,0.05,22.85,0)" xlink:href="#O"/><use transform="matrix(0.05,0,0,0.05,32.85,0)" xlink:href="#Y"/><use transform="matrix(0.05,0,0,0.05,42.85,0)" xlink:href="#M"/><use transform="matrix(0.05,0,0,0.05,51.85,0)" xlink:href="#I"/><use transform="matrix(0.05,0,0,0.05,60.85,0)" xlink:href="#H"/><use transform="matrix(0.05,0,0,0.05,70.85,0)" xlink:href="#Q"/><use transform="matrix(0.05,0,0,0.05,76.8,0)" xlink:href="#C"/><use transform="matrix(0.05,0,0,0.05,86.8,0)" xlink:href="#F"/><use transform="matrix(0.05,0,0,0.05,103.4,0)" xlink:href="#C"/><use transform="matrix(0.05,0,0,0.05,113.4,0)" xlink:href="#G"/><use transform="matrix(0.05,0,0,0.05,123.4,0)" xlink:href="#B"/><use transform="matrix(0.05,0,0,0.05,135.4,0)" xlink:href="#H"/><use transform="matrix(0.05,0,0,0.05,145.4,0)" xlink:href="#I"/><use transform="matrix(0.05,0,0,0.05,154.4,0)" xlink:href="#J"/><use transform="matrix(0.05,0,0,0.05,163.4,0)" xlink:href="#C"/><use transform="matrix(0.05,0,0,0.05,173.4,0)" xlink:href="#K"/><use transform="matrix(0.05,0,0,0.05,178.4,0)" xlink:href="#Z"/><use transform="matrix(0.05,0,0,0.05,183.4,0)" xlink:href="#I"/><use transform="matrix(0.05,0,0,0.05,192.4,0)" xlink:href="#M"/><use transform="matrix(0.05,0,0,0.05,201.4,0)" xlink:href="#R"/></g><path fill="#333" d="M108 0H70L1-190h34L89-25l56-165h34" id="aa"/><g id="e"><use transform="matrix(0.05,0,0,0.05,0,0)" xlink:href="#B"/><use transform="matrix(0.05,0,0,0.05,12,0)" xlink:href="#C"/><use transform="matrix(0.05,0,0,0.05,22,0)" xlink:href="#Q"/><use transform="matrix(0.05,0,0,0.05,27.950000000000003,0)" xlink:href="#aa"/><use transform="matrix(0.05,0,0,0.05,36.95,0)" xlink:href="#C"/><use transform="matrix(0.05,0,0,0.05,46.95,0)" xlink:href="#Q"/></g><path fill="#333" d="M24-231v-30h32v30H24zM-9 49c24 4 33-6 33-30v-209h32V24c2 40-23 58-65 49V49" id="ab"/><g id="f"><use transform="matrix(0.05,0,0,0.05,0,0)" xlink:href="#P"/><use transform="matrix(0.05,0,0,0.05,5.95,0)" xlink:href="#M"/><use transform="matrix(0.05,0,0,0.05,14.949999999999998,0)" xlink:href="#C"/><use transform="matrix(0.05,0,0,0.05,24.95,0)" xlink:href="#Q"/><use transform="matrix(0.05,0,0,0.05,30.899999999999995,0)" xlink:href="#aa"/><use transform="matrix(0.05,0,0,0.05,39.9,0)" xlink:href="#C"/><use transform="matrix(0.05,0,0,0.05,49.9,0)" xlink:href="#Q"/><use transform="matrix(0.05,0,0,0.05,54.85,0)" xlink:href="#Z"/><use transform="matrix(0.05,0,0,0.05,59.85,0)" xlink:href="#ab"/><use transform="matrix(0.05,0,0,0.05,63.800000000000004,0)" xlink:href="#M"/><use transform="matrix(0.05,0,0,0.05,72.80000000000001,0)" xlink:href="#R"/></g><path fill="#333" d="M33 0v-248h34V0H33" id="ac"/><g id="g"><use transform="matrix(0.05,0,0,0.05,0,0)" xlink:href="#F"/><use transform="matrix(0.05,0,0,0.05,16.599999999999998,0)" xlink:href="#C"/><use transform="matrix(0.05,0,0,0.05,26.599999999999994,0)" xlink:href="#G"/><use transform="matrix(0.05,0,0,0.05,36.599999999999994,0)" xlink:href="#S"/><use transform="matrix(0.05,0,0,0.05,49.55,0)" xlink:href="#ac"/></g><path fill="#333" d="M141 0L90-78 38 0H4l68-98-65-92h35l48 74 47-74h35l-64 92 68 98h-35" id="ad"/><g id="h"><use transform="matrix(0.05,0,0,0.05,0,0)" xlink:href="#P"/><use transform="matrix(0.05,0,0,0.05,5.95,0)" xlink:href="#Y"/><use transform="matrix(0.05,0,0,0.05,15.949999999999998,0)" xlink:href="#T"/><use transform="matrix(0.05,0,0,0.05,19.9,0)" xlink:href="#O"/><use transform="matrix(0.05,0,0,0.05,29.899999999999995,0)" xlink:href="#Y"/><use transform="matrix(0.05,0,0,0.05,39.9,0)" xlink:href="#M"/><use transform="matrix(0.05,0,0,0.05,48.9,0)" xlink:href="#I"/><use transform="matrix(0.05,0,0,0.05,57.900000000000006,0)" xlink:href="#H"/><use transform="matrix(0.05,0,0,0.05,67.9,0)" xlink:href="#Q"/><use transform="matrix(0.05,0,0,0.05,73.85000000000001,0)" xlink:href="#C"/><use transform="matrix(0.05,0,0,0.05,83.85000000000001,0)" xlink:href="#Z"/><use transform="matrix(0.05,0,0,0.05,88.85000000000001,0)" xlink:href="#ab"/><use transform="matrix(0.05,0,0,0.05,92.80000000000001,0)" xlink:href="#M"/><use transform="matrix(0.05,0,0,0.05,101.80000000000001,0)" xlink:href="#ad"/><use transform="matrix(0.05,0,0,0.05,110.80000000000001,0)" xlink:href="#R"/></g><path fill="#b2b2b2" d="M136-208V0H84v-208H4v-40h212v40h-80" id="ae"/><path fill="#b2b2b2" d="M114-157C55-157 80-60 75 0H25v-261h50l-1 109c12-26 28-41 61-42 86-1 58 113 63 194h-50c-7-57 23-157-34-157" id="af"/><path fill="#b2b2b2" d="M185-48c-13 30-37 53-82 52C43 2 14-33 14-96s30-98 90-98c62 0 83 45 84 108H66c0 31 8 55 39 56 18 0 30-7 34-22zm-45-69c5-46-57-63-70-21-2 6-4 13-4 21h74" id="ag"/><g id="i"><use transform="matrix(0.0728395061728395,0,0,0.0728395061728395,0,0)" xlink:href="#ae"/><use transform="matrix(0.0728395061728395,0,0,0.0728395061728395,15.95185185185185,0)" xlink:href="#af"/><use transform="matrix(0.0728395061728395,0,0,0.0728395061728395,31.9037037037037,0)" xlink:href="#ag"/></g><path fill="#b2b2b2" d="M137-138c1-29-70-34-71-4 15 46 118 7 119 86 1 83-164 76-172 9l43-7c4 19 20 25 44 25 33 8 57-30 24-41C81-84 22-81 20-136c-2-80 154-74 161-7" id="ah"/><path fill="#b2b2b2" d="M84 4C32 4 15-41 15-95c0-55 18-99 73-99 29 0 47 12 58 34l2-30h48l-1 265h-49V-32C136-9 114 4 84 4zm21-34c32 0 41-29 41-66 0-36-9-64-40-64-33 0-39 30-40 65 0 43 13 65 39 65" id="ai"/><path fill="#b2b2b2" d="M85 4C-2 5 27-109 22-190h50c7 57-23 150 33 157 60-5 35-97 40-157h50l1 190h-47c-2-12 1-28-3-38-12 25-28 42-61 42" id="aj"/><path fill="#b2b2b2" d="M135-194c87-1 58 113 63 194h-50c-7-57 23-157-34-157-59 0-34 97-39 157H25l-1-190h47c2 12-1 28 3 38 12-26 28-41 61-42" id="ak"/><path fill="#b2b2b2" d="M190-63c-7 42-38 67-86 67-59 0-84-38-90-98-12-110 154-137 174-36l-49 2c-2-19-15-32-35-32-30 0-35 28-38 64-6 74 65 87 74 30" id="al"/><g id="j"><use transform="matrix(0.0728395061728395,0,0,0.0728395061728395,0,0)" xlink:href="#ah"/><use transform="matrix(0.0728395061728395,0,0,0.0728395061728395,14.5679012345679,0)" xlink:href="#ag"/><use transform="matrix(0.0728395061728395,0,0,0.0728395061728395,29.1358024691358,0)" xlink:href="#ai"/><use transform="matrix(0.0728395061728395,0,0,0.0728395061728395,45.08765432098765,0)" xlink:href="#aj"/><use transform="matrix(0.0728395061728395,0,0,0.0728395061728395,61.0395061728395,0)" xlink:href="#ag"/><use transform="matrix(0.0728395061728395,0,0,0.0728395061728395,75.60740740740741,0)" xlink:href="#ak"/><use transform="matrix(0.0728395061728395,0,0,0.0728395061728395,91.55925925925926,0)" xlink:href="#al"/><use transform="matrix(0.0728395061728395,0,0,0.0728395061728395,106.12716049382716,0)" xlink:href="#ag"/></g><path fill="#b2b2b2" d="M88-194c31-1 46 15 58 34l-1-101h50l1 261h-48c-2-10 0-23-3-31C134-8 116 4 84 4 32 4 16-41 15-95c0-56 19-97 73-99zm17 164c33 0 40-30 41-66 1-37-9-64-41-64s-38 30-39 65c0 43 13 65 39 65" id="am"/><path fill="#b2b2b2" d="M25-224v-37h50v37H25zM25 0v-190h50V0H25" id="an"/><path fill="#b2b2b2" d="M133-34C117-15 103 5 69 4 32 3 11-16 11-54c-1-60 55-63 116-61 1-26-3-47-28-47-18 1-26 9-28 27l-52-2c7-38 36-58 82-57s74 22 75 68l1 82c-1 14 12 18 25 15v27c-30 8-71 5-69-32zm-48 3c29 0 43-24 42-57-32 0-66-3-65 30 0 17 8 27 23 27" id="ao"/><path fill="#b2b2b2" d="M195-6C206 82 75 100 31 46c-4-6-6-13-8-21l49-6c3 16 16 24 34 25 40 0 42-37 40-79-11 22-30 35-61 35-53 0-70-43-70-97 0-56 18-96 73-97 30 0 46 14 59 34l2-30h47zm-90-29c32 0 41-27 41-63 0-35-9-62-40-62-32 0-39 29-40 63 0 36 9 62 39 62" id="ap"/><path fill="#b2b2b2" d="M135-150c-39-12-60 13-60 57V0H25l-1-190h47c2 13-1 29 3 40 6-28 27-53 61-41v41" id="aq"/><path fill="#b2b2b2" d="M220-157c-53 9-28 100-34 157h-49v-107c1-27-5-49-29-50C55-147 81-57 75 0H25l-1-190h47c2 12-1 28 3 38 10-53 101-56 108 0 13-22 24-43 59-42 82 1 51 116 57 194h-49v-107c-1-25-5-48-29-50" id="ar"/><g id="k"><use transform="matrix(0.0728395061728395,0,0,0.0728395061728395,0,0)" xlink:href="#am"/><use transform="matrix(0.0728395061728395,0,0,0.0728395061728395,15.95185185185185,0)" xlink:href="#an"/><use transform="matrix(0.0728395061728395,0,0,0.0728395061728395,23.235802469135802,0)" xlink:href="#ao"/><use transform="matrix(0.0728395061728395,0,0,0.0728395061728395,37.803703703703704,0)" xlink:href="#ap"/><use transform="matrix(0.0728395061728395,0,0,0.0728395061728395,53.75555555555555,0)" xlink:href="#aq"/><use transform="matrix(0.0728395061728395,0,0,0.0728395061728395,63.953086419753085,0)" xlink:href="#ao"/><use transform="matrix(0.0728395061728395,0,0,0.0728395061728395,78.52098765432099,0)" xlink:href="#ar"/></g><path fill="#b2b2b2" d="M110-194c64 0 96 36 96 99 0 64-35 99-97 99-61 0-95-36-95-99 0-62 34-99 96-99zm-1 164c35 0 45-28 45-65 0-40-10-65-43-65-34 0-45 26-45 65 0 36 10 65 43 65" id="as"/><path fill="#b2b2b2" d="M121-226c-27-7-43 5-38 36h38v33H83V0H34v-157H6v-33h28c-9-59 32-81 87-68v32" id="at"/><g id="l"><use transform="matrix(0.0728395061728395,0,0,0.0728395061728395,0,0)" xlink:href="#as"/><use transform="matrix(0.0728395061728395,0,0,0.0728395061728395,15.95185185185185,0)" xlink:href="#at"/></g><path fill="#b2b2b2" d="M115-3C79 11 28 4 28-45v-112H4v-33h27l15-45h31v45h36v33H77v99c-1 23 16 31 38 25v30" id="au"/><g id="m"><use transform="matrix(0.0728395061728395,0,0,0.0728395061728395,0,0)" xlink:href="#au"/><use transform="matrix(0.0728395061728395,0,0,0.0728395061728395,8.667901234567902,0)" xlink:href="#af"/><use transform="matrix(0.0728395061728395,0,0,0.0728395061728395,24.619753086419752,0)" xlink:href="#ag"/></g><path fill="#b2b2b2" d="M25 0v-261h50V0H25" id="av"/><path fill="#b2b2b2" d="M14-72v-43h91v43H14" id="aw"/><path fill="#b2b2b2" d="M128 0H69L1-190h53L99-40l48-150h52" id="ax"/><g id="n"><use transform="matrix(0.0728395061728395,0,0,0.0728395061728395,0,0)" xlink:href="#al"/><use transform="matrix(0.0728395061728395,0,0,0.0728395061728395,14.5679012345679,0)" xlink:href="#av"/><use transform="matrix(0.0728395061728395,0,0,0.0728395061728395,21.85185185185185,0)" xlink:href="#an"/><use transform="matrix(0.0728395061728395,0,0,0.0728395061728395,29.1358024691358,0)" xlink:href="#ag"/><use transform="matrix(0.0728395061728395,0,0,0.0728395061728395,43.7037037037037,0)" xlink:href="#ak"/><use transform="matrix(0.0728395061728395,0,0,0.0728395061728395,59.65555555555555,0)" xlink:href="#au"/><use transform="matrix(0.0728395061728395,0,0,0.0728395061728395,68.32345679012346,0)" xlink:href="#aw"/><use transform="matrix(0.0728395061728395,0,0,0.0728395061728395,76.99135802469138,0)" xlink:href="#ah"/><use transform="matrix(0.0728395061728395,0,0,0.0728395061728395,91.55925925925926,0)" xlink:href="#ag"/><use transform="matrix(0.0728395061728395,0,0,0.0728395061728395,106.12716049382716,0)" xlink:href="#aq"/><use transform="matrix(0.0728395061728395,0,0,0.0728395061728395,116.3246913580247,0)" xlink:href="#ax"/><use transform="matrix(0.0728395061728395,0,0,0.0728395061728395,130.8925925925926,0)" xlink:href="#ag"/><use transform="matrix(0.0728395061728395,0,0,0.0728395061728395,145.4604938271605,0)" xlink:href="#aq"/></g><g id="o"><use transform="matrix(0.0728395061728395,0,0,0.0728395061728395,0,0)" xlink:href="#al"/><use transform="matrix(0.0728395061728395,0,0,0.0728395061728395,14.5679012345679,0)" xlink:href="#as"/><use transform="matrix(0.0728395061728395,0,0,0.0728395061728395,30.51975308641975,0)" xlink:href="#ar"/><use transform="matrix(0.0728395061728395,0,0,0.0728395061728395,53.82839506172839,0)" xlink:href="#ar"/><use transform="matrix(0.0728395061728395,0,0,0.0728395061728395,77.13703703703703,0)" xlink:href="#aj"/><use transform="matrix(0.0728395061728395,0,0,0.0728395061728395,93.08888888888889,0)" xlink:href="#ak"/><use transform="matrix(0.0728395061728395,0,0,0.0728395061728395,109.04074074074074,0)" xlink:href="#an"/><use transform="matrix(0.0728395061728395,0,0,0.0728395061728395,116.3246913580247,0)" xlink:href="#al"/><use transform="matrix(0.0728395061728395,0,0,0.0728395061728395,130.8925925925926,0)" xlink:href="#ao"/><use transform="matrix(0.0728395061728395,0,0,0.0728395061728395,145.4604938271605,0)" xlink:href="#au"/><use transform="matrix(0.0728395061728395,0,0,0.0728395061728395,154.12839506172838,0)" xlink:href="#an"/><use transform="matrix(0.0728395061728395,0,0,0.0728395061728395,161.41234567901233,0)" xlink:href="#as"/><use transform="matrix(0.0728395061728395,0,0,0.0728395061728395,177.36419753086417,0)" xlink:href="#ak"/></g><path fill="#b2b2b2" d="M205 0l-28-72H64L36 0H1l101-248h38L239 0h-34zm-38-99l-47-123c-12 45-31 82-46 123h93" id="ay"/><path fill="#b2b2b2" d="M115-194c55 1 70 41 70 98S169 2 115 4C84 4 66-9 55-30l1 105H24l-1-265h31l2 30c10-21 28-34 59-34zm-8 174c40 0 45-34 45-75s-6-73-45-74c-42 0-51 32-51 76 0 43 10 73 51 73" id="az"/><path fill="#b2b2b2" d="M114-163C36-179 61-72 57 0H25l-1-190h30c1 12-1 29 2 39 6-27 23-49 58-41v29" id="aA"/><path fill="#b2b2b2" d="M24-231v-30h32v30H24zM24 0v-190h32V0H24" id="aB"/><path fill="#b2b2b2" d="M24 0v-261h32V0H24" id="aC"/><g id="q"><use transform="matrix(0.04248971193415638,0,0,0.04248971193415638,0,0)" xlink:href="#ay"/><use transform="matrix(0.04248971193415638,0,0,0.04248971193415638,10.19753086419753,0)" xlink:href="#az"/><use transform="matrix(0.04248971193415638,0,0,0.04248971193415638,18.695473251028805,0)" xlink:href="#aA"/><use transform="matrix(0.04248971193415638,0,0,0.04248971193415638,23.751748971193415,0)" xlink:href="#aB"/><use transform="matrix(0.04248971193415638,0,0,0.04248971193415638,27.10843621399177,0)" xlink:href="#aC"/></g><path fill="#b2b2b2" d="M27 0v-27h64v-190l-56 39v-29l58-41h29v221h61V0H27" id="aD"/><path fill="#b2b2b2" d="M110-160c48 1 74 30 74 79 0 53-28 85-80 85-65 0-83-55-86-122-5-90 50-162 133-122 14 7 22 21 27 39l-31 6c-5-40-67-38-82-6-9 19-15 44-15 74 11-20 30-34 60-33zm-7 138c34 0 49-23 49-58s-16-56-50-56c-29 0-50 16-49 49 1 36 15 65 50 65" id="aE"/><path fill="#b2b2b2" d="M68-38c1 34 0 65-14 84H32c9-13 17-26 17-46H33v-38h35" id="aF"/><g id="r"><use transform="matrix(0.04248971193415638,0,0,0.04248971193415638,0,0)" xlink:href="#aD"/><use transform="matrix(0.04248971193415638,0,0,0.04248971193415638,8.497942386831275,0)" xlink:href="#aE"/><use transform="matrix(0.04248971193415638,0,0,0.04248971193415638,16.99588477366255,0)" xlink:href="#aF"/></g><path fill="#b2b2b2" d="M101-251c82-7 93 87 43 132L82-64C71-53 59-42 53-27h129V0H18c2-99 128-94 128-182 0-28-16-43-45-43s-46 15-49 41l-32-3c6-41 34-60 81-64" id="aG"/><path fill="#b2b2b2" d="M101-251c68 0 85 55 85 127S166 4 100 4C33 4 14-52 14-124c0-73 17-127 87-127zm-1 229c47 0 54-49 54-102s-4-102-53-102c-51 0-55 48-55 102 0 53 5 102 54 102" id="aH"/><g id="s"><use transform="matrix(0.04248971193415638,0,0,0.04248971193415638,0,0)" xlink:href="#aG"/><use transform="matrix(0.04248971193415638,0,0,0.04248971193415638,8.497942386831275,0)" xlink:href="#aH"/><use transform="matrix(0.04248971193415638,0,0,0.04248971193415638,16.99588477366255,0)" xlink:href="#aG"/><use transform="matrix(0.04248971193415638,0,0,0.04248971193415638,25.493827160493822,0)" xlink:href="#aH"/></g><path fill="#333" d="M153-248C145-148 188 4 80 4 36 3 13-21 6-62l32-5c4 25 16 42 43 43 27 0 39-20 39-49v-147H72v-28h81" id="aI"/><path fill="#333" d="M140-251c81 0 123 46 123 126C263-46 219 4 140 4 59 4 17-45 17-125s42-126 123-126zm0 227c63 0 89-41 89-101s-29-99-89-99c-61 0-89 39-89 99S79-25 140-24" id="aJ"/><path fill="#333" d="M190 0L58-211 59 0H30v-248h39L202-35l-2-213h31V0h-41" id="aK"/><path fill="#333" d="M101-234c-31-9-42 10-38 44h38v23H63V0H32v-167H5v-23h27c-7-52 17-82 69-68v24" id="aL"/><path fill="#333" d="M84 4C-5 8 30-112 23-190h32v120c0 31 7 50 39 49 72-2 45-101 50-169h31l1 190h-30c-1-10 1-25-2-33-11 22-28 36-60 37" id="aM"/><path fill="#333" d="M30-248c87 1 191-15 191 75 0 78-77 80-158 76V0H30v-248zm33 125c57 0 124 11 124-50 0-59-68-47-124-48v98" id="aN"/><g id="t"><use transform="matrix(0.05,0,0,0.05,0,0)" xlink:href="#I"/><use transform="matrix(0.05,0,0,0.05,9,0)" xlink:href="#W"/><use transform="matrix(0.05,0,0,0.05,12.949999999999998,0)" xlink:href="#T"/><use transform="matrix(0.05,0,0,0.05,16.9,0)" xlink:href="#C"/><use transform="matrix(0.05,0,0,0.05,26.899999999999995,0)" xlink:href="#D"/><use transform="matrix(0.05,0,0,0.05,36.9,0)" xlink:href="#K"/><use transform="matrix(0.05,0,0,0.05,41.9,0)" xlink:href="#Z"/><use transform="matrix(0.05,0,0,0.05,46.9,0)" xlink:href="#M"/><use transform="matrix(0.05,0,0,0.05,55.900000000000006,0)" xlink:href="#C"/><use transform="matrix(0.05,0,0,0.05,65.9,0)" xlink:href="#D"/><use transform="matrix(0.05,0,0,0.05,75.9,0)" xlink:href="#E"/><use transform="matrix(0.05,0,0,0.05,85.9,0)" xlink:href="#P"/><use transform="matrix(0.05,0,0,0.05,91.85000000000001,0)" xlink:href="#aI"/><use transform="matrix(0.05,0,0,0.05,100.85000000000001,0)" xlink:href="#B"/><use transform="matrix(0.05,0,0,0.05,112.85000000000001,0)" xlink:href="#aJ"/><use transform="matrix(0.05,0,0,0.05,126.85000000000001,0)" xlink:href="#aK"/><use transform="matrix(0.05,0,0,0.05,139.8,0)" xlink:href="#Z"/><use transform="matrix(0.05,0,0,0.05,144.8,0)" xlink:href="#M"/><use transform="matrix(0.05,0,0,0.05,153.8,0)" xlink:href="#K"/><use transform="matrix(0.05,0,0,0.05,158.8,0)" xlink:href="#Q"/><use transform="matrix(0.05,0,0,0.05,164.75,0)" xlink:href="#T"/><use transform="matrix(0.05,0,0,0.05,168.7,0)" xlink:href="#D"/><use transform="matrix(0.05,0,0,0.05,178.7,0)" xlink:href="#O"/><use transform="matrix(0.05,0,0,0.05,188.7,0)" xlink:href="#T"/><use transform="matrix(0.05,0,0,0.05,192.64999999999998,0)" xlink:href="#aL"/><use transform="matrix(0.05,0,0,0.05,197.64999999999998,0)" xlink:href="#U"/><use transform="matrix(0.05,0,0,0.05,206.64999999999998,0)" xlink:href="#P"/><use transform="matrix(0.05,0,0,0.05,212.59999999999997,0)" xlink:href="#I"/><use transform="matrix(0.05,0,0,0.05,221.59999999999997,0)" xlink:href="#aM"/><use transform="matrix(0.05,0,0,0.05,231.59999999999997,0)" xlink:href="#Q"/><use transform="matrix(0.05,0,0,0.05,237.54999999999995,0)" xlink:href="#Q"/><use transform="matrix(0.05,0,0,0.05,243.49999999999991,0)" xlink:href="#C"/><use transform="matrix(0.05,0,0,0.05,253.49999999999991,0)" xlink:href="#D"/><use transform="matrix(0.05,0,0,0.05,263.49999999999994,0)" xlink:href="#K"/><use transform="matrix(0.05,0,0,0.05,268.49999999999994,0)" xlink:href="#aN"/><use transform="matrix(0.05,0,0,0.05,280.49999999999994,0)" xlink:href="#W"/><use transform="matrix(0.05,0,0,0.05,284.44999999999993,0)" xlink:href="#N"/><use transform="matrix(0.05,0,0,0.05,294.44999999999993,0)" xlink:href="#U"/><use transform="matrix(0.05,0,0,0.05,303.44999999999993,0)" xlink:href="#C"/><use transform="matrix(0.05,0,0,0.05,313.44999999999993,0)" xlink:href="#Q"/><use transform="matrix(0.05,0,0,0.05,319.3999999999999,0)" xlink:href="#R"/><use transform="matrix(0.05,0,0,0.05,325.3499999999999,0)" xlink:href="#R"/></g><g id="u"><use transform="matrix(0.05,0,0,0.05,0,0)" xlink:href="#I"/><use transform="matrix(0.05,0,0,0.05,9,0)" xlink:href="#W"/><use transform="matrix(0.05,0,0,0.05,12.949999999999998,0)" xlink:href="#T"/><use transform="matrix(0.05,0,0,0.05,16.9,0)" xlink:href="#C"/><use transform="matrix(0.05,0,0,0.05,26.899999999999995,0)" xlink:href="#D"/><use transform="matrix(0.05,0,0,0.05,36.9,0)" xlink:href="#K"/><use transform="matrix(0.05,0,0,0.05,41.9,0)" xlink:href="#Z"/><use transform="matrix(0.05,0,0,0.05,46.9,0)" xlink:href="#M"/><use transform="matrix(0.05,0,0,0.05,55.900000000000006,0)" xlink:href="#C"/><use transform="matrix(0.05,0,0,0.05,65.9,0)" xlink:href="#D"/><use transform="matrix(0.05,0,0,0.05,75.9,0)" xlink:href="#E"/><use transform="matrix(0.05,0,0,0.05,85.9,0)" xlink:href="#P"/><use transform="matrix(0.05,0,0,0.05,91.85000000000001,0)" xlink:href="#aI"/><use transform="matrix(0.05,0,0,0.05,100.85000000000001,0)" xlink:href="#B"/><use transform="matrix(0.05,0,0,0.05,112.85000000000001,0)" xlink:href="#aJ"/><use transform="matrix(0.05,0,0,0.05,126.85000000000001,0)" xlink:href="#aK"/><use transform="matrix(0.05,0,0,0.05,139.8,0)" xlink:href="#Z"/><use transform="matrix(0.05,0,0,0.05,144.8,0)" xlink:href="#M"/><use transform="matrix(0.05,0,0,0.05,153.8,0)" xlink:href="#K"/><use transform="matrix(0.05,0,0,0.05,158.8,0)" xlink:href="#Q"/><use transform="matrix(0.05,0,0,0.05,164.75,0)" xlink:href="#T"/><use transform="matrix(0.05,0,0,0.05,168.7,0)" xlink:href="#D"/><use transform="matrix(0.05,0,0,0.05,178.7,0)" xlink:href="#O"/><use transform="matrix(0.05,0,0,0.05,188.7,0)" xlink:href="#T"/><use transform="matrix(0.05,0,0,0.05,192.64999999999998,0)" xlink:href="#aL"/><use transform="matrix(0.05,0,0,0.05,197.64999999999998,0)" xlink:href="#U"/><use transform="matrix(0.05,0,0,0.05,206.64999999999998,0)" xlink:href="#P"/><use transform="matrix(0.05,0,0,0.05,212.59999999999997,0)" xlink:href="#I"/><use transform="matrix(0.05,0,0,0.05,221.59999999999997,0)" xlink:href="#aM"/><use transform="matrix(0.05,0,0,0.05,231.59999999999997,0)" xlink:href="#Q"/><use transform="matrix(0.05,0,0,0.05,237.54999999999995,0)" xlink:href="#Q"/><use transform="matrix(0.05,0,0,0.05,243.49999999999991,0)" xlink:href="#C"/><use transform="matrix(0.05,0,0,0.05,253.49999999999991,0)" xlink:href="#D"/><use transform="matrix(0.05,0,0,0.05,263.49999999999994,0)" xlink:href="#K"/><use transform="matrix(0.05,0,0,0.05,268.49999999999994,0)" xlink:href="#X"/><use transform="matrix(0.05,0,0,0.05,281.44999999999993,0)" xlink:href="#T"/><use transform="matrix(0.05,0,0,0.05,285.3999999999999,0)" xlink:href="#O"/><use transform="matrix(0.05,0,0,0.05,295.3999999999999,0)" xlink:href="#Y"/><use transform="matrix(0.05,0,0,0.05,305.3999999999999,0)" xlink:href="#M"/><use transform="matrix(0.05,0,0,0.05,314.3999999999999,0)" xlink:href="#I"/><use transform="matrix(0.05,0,0,0.05,323.3999999999999,0)" xlink:href="#H"/><use transform="matrix(0.05,0,0,0.05,333.3999999999999,0)" xlink:href="#Q"/><use transform="matrix(0.05,0,0,0.05,339.3499999999999,0)" xlink:href="#C"/><use transform="matrix(0.05,0,0,0.05,349.3499999999999,0)" xlink:href="#R"/><use transform="matrix(0.05,0,0,0.05,355.2999999999999,0)" xlink:href="#R"/></g><path fill="#333" d="M233-177c-1 41-23 64-60 70L243 0h-38l-65-103H63V0H30v-248c88 3 205-21 203 71zM63-129c60-2 137 13 137-47 0-61-80-42-137-45v92" id="aO"/><g id="v"><use transform="matrix(0.05,0,0,0.05,0,0)" xlink:href="#M"/><use transform="matrix(0.05,0,0,0.05,9,0)" xlink:href="#C"/><use transform="matrix(0.05,0,0,0.05,19,0)" xlink:href="#D"/><use transform="matrix(0.05,0,0,0.05,29,0)" xlink:href="#E"/><use transform="matrix(0.05,0,0,0.05,39,0)" xlink:href="#aO"/><use transform="matrix(0.05,0,0,0.05,51.95,0)" xlink:href="#C"/><use transform="matrix(0.05,0,0,0.05,61.95,0)" xlink:href="#M"/><use transform="matrix(0.05,0,0,0.05,70.95,0)" xlink:href="#C"/><use transform="matrix(0.05,0,0,0.05,80.95,0)" xlink:href="#K"/><use transform="matrix(0.05,0,0,0.05,85.95,0)" xlink:href="#L"/><use transform="matrix(0.05,0,0,0.05,100.9,0)" xlink:href="#C"/><use transform="matrix(0.05,0,0,0.05,110.9,0)" xlink:href="#M"/><use transform="matrix(0.05,0,0,0.05,119.9,0)" xlink:href="#M"/><use transform="matrix(0.05,0,0,0.05,128.9,0)" xlink:href="#N"/><use transform="matrix(0.05,0,0,0.05,138.9,0)" xlink:href="#O"/><use transform="matrix(0.05,0,0,0.05,148.9,0)" xlink:href="#C"/><use transform="matrix(0.05,0,0,0.05,158.9,0)" xlink:href="#P"/><use transform="matrix(0.05,0,0,0.05,164.85,0)" xlink:href="#R"/></g><path fill="#333" d="M206 0h-36l-40-164L89 0H53L-1-190h32L70-26l43-164h34l41 164 42-164h31" id="aP"/><path fill="#333" d="M109-170H84l-4-78h32zm-65 0H19l-4-78h33" id="aQ"/><g id="w"><use transform="matrix(0.05,0,0,0.05,0,0)" xlink:href="#K"/><use transform="matrix(0.05,0,0,0.05,5,0)" xlink:href="#Y"/><use transform="matrix(0.05,0,0,0.05,15,0)" xlink:href="#T"/><use transform="matrix(0.05,0,0,0.05,18.95,0)" xlink:href="#M"/><use transform="matrix(0.05,0,0,0.05,27.950000000000003,0)" xlink:href="#Z"/><use transform="matrix(0.05,0,0,0.05,32.95,0)" xlink:href="#M"/><use transform="matrix(0.05,0,0,0.05,41.95,0)" xlink:href="#K"/><use transform="matrix(0.05,0,0,0.05,46.95,0)" xlink:href="#N"/><use transform="matrix(0.05,0,0,0.05,56.95,0)" xlink:href="#K"/><use transform="matrix(0.05,0,0,0.05,61.95,0)" xlink:href="#C"/><use transform="matrix(0.05,0,0,0.05,71.95,0)" xlink:href="#Z"/><use transform="matrix(0.05,0,0,0.05,76.95,0)" xlink:href="#aP"/><use transform="matrix(0.05,0,0,0.05,89.9,0)" xlink:href="#M"/><use transform="matrix(0.05,0,0,0.05,98.9,0)" xlink:href="#Z"/><use transform="matrix(0.05,0,0,0.05,103.9,0)" xlink:href="#M"/><use transform="matrix(0.05,0,0,0.05,112.9,0)" xlink:href="#C"/><use transform="matrix(0.05,0,0,0.05,122.9,0)" xlink:href="#D"/><use transform="matrix(0.05,0,0,0.05,132.9,0)" xlink:href="#E"/><use transform="matrix(0.05,0,0,0.05,142.9,0)" xlink:href="#P"/><use transform="matrix(0.05,0,0,0.05,148.85,0)" xlink:href="#aQ"/><use transform="matrix(0.05,0,0,0.05,155.2,0)" xlink:href="#Q"/><use transform="matrix(0.05,0,0,0.05,161.14999999999998,0)" xlink:href="#C"/><use transform="matrix(0.05,0,0,0.05,171.14999999999998,0)" xlink:href="#M"/><use transform="matrix(0.05,0,0,0.05,180.14999999999998,0)" xlink:href="#C"/><use transform="matrix(0.05,0,0,0.05,190.14999999999998,0)" xlink:href="#K"/><use transform="matrix(0.05,0,0,0.05,195.14999999999998,0)" xlink:href="#aQ"/><use transform="matrix(0.05,0,0,0.05,201.49999999999997,0)" xlink:href="#R"/></g><path fill="#333" d="M115-194c55 1 70 41 70 98S169 2 115 4C84 4 66-9 55-30l1 105H24l-1-265h31l2 30c10-21 28-34 59-34zm-8 174c40 0 45-34 45-75s-6-73-45-74c-42 0-51 32-51 76 0 43 10 73 51 73" id="aR"/><g id="x"><use transform="matrix(0.05,0,0,0.05,0,0)" xlink:href="#M"/><use transform="matrix(0.05,0,0,0.05,9,0)" xlink:href="#C"/><use transform="matrix(0.05,0,0,0.05,19,0)" xlink:href="#D"/><use transform="matrix(0.05,0,0,0.05,29,0)" xlink:href="#E"/><use transform="matrix(0.05,0,0,0.05,39,0)" xlink:href="#S"/><use transform="matrix(0.05,0,0,0.05,51.95,0)" xlink:href="#aR"/><use transform="matrix(0.05,0,0,0.05,61.95,0)" xlink:href="#E"/><use transform="matrix(0.05,0,0,0.05,71.95,0)" xlink:href="#N"/><use transform="matrix(0.05,0,0,0.05,81.95,0)" xlink:href="#K"/><use transform="matrix(0.05,0,0,0.05,86.95,0)" xlink:href="#C"/><use transform="matrix(0.05,0,0,0.05,96.95,0)" xlink:href="#L"/><use transform="matrix(0.05,0,0,0.05,111.9,0)" xlink:href="#C"/><use transform="matrix(0.05,0,0,0.05,121.9,0)" xlink:href="#M"/><use transform="matrix(0.05,0,0,0.05,130.9,0)" xlink:href="#M"/><use transform="matrix(0.05,0,0,0.05,139.9,0)" xlink:href="#N"/><use transform="matrix(0.05,0,0,0.05,149.9,0)" xlink:href="#O"/><use transform="matrix(0.05,0,0,0.05,159.9,0)" xlink:href="#C"/><use transform="matrix(0.05,0,0,0.05,169.9,0)" xlink:href="#P"/><use transform="matrix(0.05,0,0,0.05,175.85,0)" xlink:href="#R"/></g><g id="y"><use transform="matrix(0.05,0,0,0.05,0,0)" xlink:href="#I"/><use transform="matrix(0.05,0,0,0.05,9,0)" xlink:href="#W"/><use transform="matrix(0.05,0,0,0.05,12.949999999999998,0)" xlink:href="#T"/><use transform="matrix(0.05,0,0,0.05,16.9,0)" xlink:href="#C"/><use transform="matrix(0.05,0,0,0.05,26.899999999999995,0)" xlink:href="#D"/><use transform="matrix(0.05,0,0,0.05,36.9,0)" xlink:href="#K"/><use transform="matrix(0.05,0,0,0.05,41.9,0)" xlink:href="#Z"/><use transform="matrix(0.05,0,0,0.05,46.9,0)" xlink:href="#M"/><use transform="matrix(0.05,0,0,0.05,55.900000000000006,0)" xlink:href="#C"/><use transform="matrix(0.05,0,0,0.05,65.9,0)" xlink:href="#D"/><use transform="matrix(0.05,0,0,0.05,75.9,0)" xlink:href="#E"/><use transform="matrix(0.05,0,0,0.05,85.9,0)" xlink:href="#P"/><use transform="matrix(0.05,0,0,0.05,91.85000000000001,0)" xlink:href="#aI"/><use transform="matrix(0.05,0,0,0.05,100.85000000000001,0)" xlink:href="#B"/><use transform="matrix(0.05,0,0,0.05,112.85000000000001,0)" xlink:href="#aJ"/><use transform="matrix(0.05,0,0,0.05,126.85000000000001,0)" xlink:href="#aK"/><use transform="matrix(0.05,0,0,0.05,139.8,0)" xlink:href="#Z"/><use transform="matrix(0.05,0,0,0.05,144.8,0)" xlink:href="#M"/><use transform="matrix(0.05,0,0,0.05,153.8,0)" xlink:href="#K"/><use transform="matrix(0.05,0,0,0.05,158.8,0)" xlink:href="#Q"/><use transform="matrix(0.05,0,0,0.05,164.75,0)" xlink:href="#T"/><use transform="matrix(0.05,0,0,0.05,168.7,0)" xlink:href="#D"/><use transform="matrix(0.05,0,0,0.05,178.7,0)" xlink:href="#O"/><use transform="matrix(0.05,0,0,0.05,188.7,0)" xlink:href="#T"/><use transform="matrix(0.05,0,0,0.05,192.64999999999998,0)" xlink:href="#aL"/><use transform="matrix(0.05,0,0,0.05,197.64999999999998,0)" xlink:href="#U"/><use transform="matrix(0.05,0,0,0.05,206.64999999999998,0)" xlink:href="#P"/><use transform="matrix(0.05,0,0,0.05,212.59999999999997,0)" xlink:href="#I"/><use transform="matrix(0.05,0,0,0.05,221.59999999999997,0)" xlink:href="#aM"/><use transform="matrix(0.05,0,0,0.05,231.59999999999997,0)" xlink:href="#Q"/><use transform="matrix(0.05,0,0,0.05,237.54999999999995,0)" xlink:href="#Q"/><use transform="matrix(0.05,0,0,0.05,243.49999999999991,0)" xlink:href="#C"/><use transform="matrix(0.05,0,0,0.05,253.49999999999991,0)" xlink:href="#D"/><use transform="matrix(0.05,0,0,0.05,263.49999999999994,0)" xlink:href="#K"/><use transform="matrix(0.05,0,0,0.05,268.49999999999994,0)" xlink:href="#X"/><use transform="matrix(0.05,0,0,0.05,281.44999999999993,0)" xlink:href="#T"/><use transform="matrix(0.05,0,0,0.05,285.3999999999999,0)" xlink:href="#O"/><use transform="matrix(0.05,0,0,0.05,295.3999999999999,0)" xlink:href="#Y"/><use transform="matrix(0.05,0,0,0.05,305.3999999999999,0)" xlink:href="#M"/><use transform="matrix(0.05,0,0,0.05,314.3999999999999,0)" xlink:href="#I"/><use transform="matrix(0.05,0,0,0.05,323.3999999999999,0)" xlink:href="#H"/><use transform="matrix(0.05,0,0,0.05,333.3999999999999,0)" xlink:href="#Q"/><use transform="matrix(0.05,0,0,0.05,339.3499999999999,0)" xlink:href="#C"/><use transform="matrix(0.05,0,0,0.05,349.3499999999999,0)" xlink:href="#R"/></g><g id="z"><use transform="matrix(0.05,0,0,0.05,0,0)" xlink:href="#B"/><use transform="matrix(0.05,0,0,0.05,12,0)" xlink:href="#C"/><use transform="matrix(0.05,0,0,0.05,22,0)" xlink:href="#D"/><use transform="matrix(0.05,0,0,0.05,32,0)" xlink:href="#E"/><use transform="matrix(0.05,0,0,0.05,42,0)" xlink:href="#F"/><use transform="matrix(0.05,0,0,0.05,58.599999999999994,0)" xlink:href="#C"/><use transform="matrix(0.05,0,0,0.05,68.6,0)" xlink:href="#G"/><use transform="matrix(0.05,0,0,0.05,78.6,0)" xlink:href="#B"/><use transform="matrix(0.05,0,0,0.05,90.6,0)" xlink:href="#H"/><use transform="matrix(0.05,0,0,0.05,100.6,0)" xlink:href="#I"/><use transform="matrix(0.05,0,0,0.05,109.59999999999998,0)" xlink:href="#J"/><use transform="matrix(0.05,0,0,0.05,118.59999999999998,0)" xlink:href="#C"/><use transform="matrix(0.05,0,0,0.05,128.6,0)" xlink:href="#K"/><use transform="matrix(0.05,0,0,0.05,133.6,0)" xlink:href="#L"/><use transform="matrix(0.05,0,0,0.05,148.54999999999998,0)" xlink:href="#C"/><use transform="matrix(0.05,0,0,0.05,158.54999999999998,0)" xlink:href="#M"/><use transform="matrix(0.05,0,0,0.05,167.54999999999998,0)" xlink:href="#M"/><use transform="matrix(0.05,0,0,0.05,176.54999999999998,0)" xlink:href="#N"/><use transform="matrix(0.05,0,0,0.05,186.54999999999998,0)" xlink:href="#O"/><use transform="matrix(0.05,0,0,0.05,196.54999999999998,0)" xlink:href="#C"/><use transform="matrix(0.05,0,0,0.05,206.54999999999995,0)" xlink:href="#P"/><use transform="matrix(0.05,0,0,0.05,212.49999999999997,0)" xlink:href="#aQ"/><use transform="matrix(0.05,0,0,0.05,218.84999999999997,0)" xlink:href="#aM"/><use transform="matrix(0.05,0,0,0.05,228.84999999999997,0)" xlink:href="#aR"/><use transform="matrix(0.05,0,0,0.05,238.84999999999997,0)" xlink:href="#E"/><use transform="matrix(0.05,0,0,0.05,248.84999999999997,0)" xlink:href="#N"/><use transform="matrix(0.05,0,0,0.05,258.84999999999997,0)" xlink:href="#K"/><use transform="matrix(0.05,0,0,0.05,263.84999999999997,0)" xlink:href="#C"/><use transform="matrix(0.05,0,0,0.05,273.84999999999997,0)" xlink:href="#aQ"/><use transform="matrix(0.05,0,0,0.05,280.2,0)" xlink:href="#R"/></g><g id="A"><use transform="matrix(0.05,0,0,0.05,0,0)" xlink:href="#K"/><use transform="matrix(0.05,0,0,0.05,5,0)" xlink:href="#Y"/><use transform="matrix(0.05,0,0,0.05,15,0)" xlink:href="#T"/><use transform="matrix(0.05,0,0,0.05,18.95,0)" xlink:href="#M"/><use transform="matrix(0.05,0,0,0.05,27.950000000000003,0)" xlink:href="#Z"/><use transform="matrix(0.05,0,0,0.05,32.95,0)" xlink:href="#M"/><use transform="matrix(0.05,0,0,0.05,41.95,0)" xlink:href="#K"/><use transform="matrix(0.05,0,0,0.05,46.95,0)" xlink:href="#N"/><use transform="matrix(0.05,0,0,0.05,56.95,0)" xlink:href="#K"/><use transform="matrix(0.05,0,0,0.05,61.95,0)" xlink:href="#C"/><use transform="matrix(0.05,0,0,0.05,71.95,0)" xlink:href="#Z"/><use transform="matrix(0.05,0,0,0.05,76.95,0)" xlink:href="#aP"/><use transform="matrix(0.05,0,0,0.05,89.9,0)" xlink:href="#M"/><use transform="matrix(0.05,0,0,0.05,98.9,0)" xlink:href="#Z"/><use transform="matrix(0.05,0,0,0.05,103.9,0)" xlink:href="#M"/><use transform="matrix(0.05,0,0,0.05,112.9,0)" xlink:href="#C"/><use transform="matrix(0.05,0,0,0.05,122.9,0)" xlink:href="#D"/><use transform="matrix(0.05,0,0,0.05,132.9,0)" xlink:href="#E"/><use transform="matrix(0.05,0,0,0.05,142.9,0)" xlink:href="#P"/><use transform="matrix(0.05,0,0,0.05,148.85,0)" xlink:href="#aQ"/><use transform="matrix(0.05,0,0,0.05,155.2,0)" xlink:href="#aM"/><use transform="matrix(0.05,0,0,0.05,165.2,0)" xlink:href="#aR"/><use transform="matrix(0.05,0,0,0.05,175.2,0)" xlink:href="#E"/><use transform="matrix(0.05,0,0,0.05,185.2,0)" xlink:href="#N"/><use transform="matrix(0.05,0,0,0.05,195.2,0)" xlink:href="#K"/><use transform="matrix(0.05,0,0,0.05,200.2,0)" xlink:href="#C"/><use transform="matrix(0.05,0,0,0.05,210.19999999999996,0)" xlink:href="#aQ"/><use transform="matrix(0.05,0,0,0.05,216.54999999999995,0)" xlink:href="#R"/></g></defs></g></svg>