<svg xmlns="http://www.w3.org/2000/svg" xmlns:xlink="http://www.w3.org/1999/xlink" xmlns:lucid="lucid" width="1583" height="500"><g transform="translate(-150 -411)" lucid:page-tab-id="0_0"><path d="M401.54 618c0 12.04-10.06 21.8-22.47 21.8-12.4 0-22.47-9.76-22.47-21.8 0-12.04 10.06-21.8 22.47-21.8 12.4 0 22.47 9.76 22.47 21.8z" stroke="#000" stroke-width="2"/><path d="M747.58 574.4c19.85 0 35.95 19.52 35.95 43.6 0 24.08-16.1 43.6-35.95 43.6H639.72c-19.85 0-35.95-19.52-35.95-43.6 0-24.08 16.1-43.6 35.95-43.6z" stroke="#000" stroke-width="2" fill="#fff"/><use xlink:href="#a" transform="matrix(1,0,0,1,608.7689320388347,579.3999999999997) translate(20.599999999999994 31.4625)"/><use xlink:href="#b" transform="matrix(1,0,0,1,608.7689320388347,579.3999999999997) translate(106.45 31.4625)"/><use xlink:href="#c" transform="matrix(1,0,0,1,608.7689320388347,579.3999999999997) translate(124.4 31.4625)"/><use xlink:href="#d" transform="matrix(1,0,0,1,608.7689320388347,579.3999999999997) translate(47.05 53.0625)"/><path d="M1309.32 574.4c19.86 0 35.96 19.52 35.96 43.6 0 24.08-16.1 43.6-35.96 43.6h-107.85c-19.86 0-35.95-19.52-35.95-43.6 0-24.08 16.1-43.6 35.95-43.6z" stroke="#000" stroke-width="2" fill="#fff"/><use xlink:href="#a" transform="matrix(1,0,0,1,1170.5165048543688,579.3999999999997) translate(35.599999999999994 31.4625)"/><use xlink:href="#e" transform="matrix(1,0,0,1,1170.5165048543688,579.3999999999997) translate(121.45 31.4625)"/><use xlink:href="#d" transform="matrix(1,0,0,1,1170.5165048543688,579.3999999999997) translate(47.05 53.0625)"/><path d="M403.54 618H600.94" stroke="#000" stroke-width="2" fill="none"/><path d="M403.57 619h-1.14l.1-.95v-.4l-.07-.65h1.1z"/><path d="M583.6 628.18L600.8 618l-17.2-10.18M785.53 618h377.17" stroke="#000" stroke-width="2" fill="none"/><path d="M785.55 619h-1.08l.06-1-.04-1h1.05z"/><path d="M1145.34 628.18l17.2-10.18-17.2-10.18" stroke="#000" stroke-width="2" fill="none"/><path d="M806 552.6h325.8V618H806z" stroke="#000" stroke-opacity="0" stroke-width="2" fill="#fff" fill-opacity="0"/><use xlink:href="#f" transform="matrix(1,0,0,1,810.9980582524271,557.6) translate(24.69999999999999 31.9)"/><use xlink:href="#g" transform="matrix(1,0,0,1,810.9980582524271,557.6) translate(99.6 31.9)"/><use xlink:href="#h" transform="matrix(1,0,0,1,810.9980582524271,557.6) translate(209.4 31.9)"/><use xlink:href="#i" transform="matrix(1,0,0,1,810.9980582524271,557.6) translate(227.35 31.9)"/><path d="M1255.42 572.4l.04-1.4.17-2.35.3-2.3.4-2.26.5-2.24.6-2.2.74-2.18.85-2.16.96-2.15 1.1-2.13 1.2-2.12 1.37-2.12 1.5-2.1 1.67-2.1 1.82-2.07 2-2.05 2.17-2.03 2.37-2 2.56-1.94 2.74-1.88 2.94-1.8 3.14-1.72 3.3-1.6 3.45-1.48 3.58-1.32 3.7-1.16 3.78-.98 3.82-.8 3.83-.58 3.82-.4 3.76-.2 3.68-.03 3.58.16 3.47.34 3.36.48 3.22.63 3.08.77 2.95.9 2.83 1 2.7 1.1 2.56 1.22 2.43 1.3 2.34 1.4.23.16 1.82 1.24 1.82 1.4 1.83 1.57 1.82 1.76 1.8 1.95 1.8 2.18 1.77 2.4 1.74 2.62 1.68 2.87 1.58 3.1 1.48 3.35 1.33 3.53 1.16 3.68.96 3.8.74 3.82.53 3.8.3 3.73.1 3.6-.08 3.4-.28 3.2-.42 3-.55 2.8-.66 2.57-.76 2.37-.82 2.18-.9 2-.93 1.85-1 1.7-1.03 1.56-1.08 1.45-1.12 1.33-1.14 1.23-1.2 1.15-1.2 1.05-1.28.97-1.32.9-1.37.82-1.43.75-1.5.7-1.57.6-1.65.56-1.76.48-1.87.4-2 .3-2.15.22-1.16.05" stroke="#000" stroke-width="2" fill="none"/><path d="M1256.42 572.4l-.02 1h-2l.02-1.05z"/><path d="M1363.06 604.22l-14.86 13.4 18.9 6.56" stroke="#000" stroke-width="2" fill="none"/><path d="M1188 465.4h325.8v65.4H1188z" stroke="#000" stroke-opacity="0" stroke-width="2" fill="#fff" fill-opacity="0"/><g><use xlink:href="#j" transform="matrix(1,0,0,1,1192.9864077669902,470.4) translate(109.925 31.9)"/><use xlink:href="#k" transform="matrix(1,0,0,1,1192.9864077669902,470.4) translate(165.075 31.9)"/><use xlink:href="#l" transform="matrix(1,0,0,1,1192.9864077669902,470.4) translate(191.075 31.9)"/></g><path d="M1255.4 663.6v117.9H693.65V664.42" stroke="#000" stroke-width="2" fill="none"/><path d="M1256.4 663.63h-2v-1.03h2z"/><path d="M703.83 681.78l-10.18-17.22-10.18 17.22" stroke="#000" stroke-width="2" fill="none"/><path d="M811.62 792.4h325.8v65.4h-325.8z" stroke="#000" stroke-opacity="0" stroke-width="2" fill="#fff" fill-opacity="0"/><g><use xlink:href="#f" transform="matrix(1,0,0,1,816.6155339805827,797.3999999999997) translate(23.224999999999994 21.4)"/><use xlink:href="#g" transform="matrix(1,0,0,1,816.6155339805827,797.3999999999997) translate(98.125 21.4)"/><use xlink:href="#h" transform="matrix(1,0,0,1,816.6155339805827,797.3999999999997) translate(207.925 21.4)"/><use xlink:href="#m" transform="matrix(1,0,0,1,816.6155339805827,797.3999999999997) translate(225.875 21.4)"/><use xlink:href="#n" transform="matrix(1,0,0,1,816.6155339805827,797.3999999999997) translate(115.175 43)"/><use xlink:href="#o" transform="matrix(1,0,0,1,816.6155339805827,797.3999999999997) translate(170.325 43)"/><use xlink:href="#p" transform="matrix(1,0,0,1,816.6155339805827,797.3999999999997) translate(185.825 43)"/></g><defs><path fill="#333" d="M197 0v-115H63V0H30v-248h33v105h134v-105h34V0h-34" id="q"/><path fill="#333" d="M24-231v-30h32v30H24zM24 0v-190h32V0H24" id="r"/><path fill="#333" d="M177-190C167-65 218 103 67 71c-23-6-38-20-44-43l32-5c15 47 100 32 89-28v-30C133-14 115 1 83 1 29 1 15-40 15-95c0-56 16-97 71-98 29-1 48 16 59 35 1-10 0-23 2-32h30zM94-22c36 0 50-32 50-73 0-42-14-75-50-75-39 0-46 34-46 75s6 73 46 73" id="s"/><path fill="#333" d="M106-169C34-169 62-67 57 0H25v-261h32l-1 103c12-21 28-36 61-36 89 0 53 116 60 194h-32v-121c2-32-8-49-39-48" id="t"/><path fill="#333" d="M135-143c-3-34-86-38-87 0 15 53 115 12 119 90S17 21 10-45l28-5c4 36 97 45 98 0-10-56-113-15-118-90-4-57 82-63 122-42 12 7 21 19 24 35" id="u"/><path fill="#333" d="M96-169c-40 0-48 33-48 73s9 75 48 75c24 0 41-14 43-38l32 2c-6 37-31 61-74 61-59 0-76-41-82-99-10-93 101-131 147-64 4 7 5 14 7 22l-32 3c-4-21-16-35-41-35" id="v"/><path fill="#333" d="M100-194c62-1 85 37 85 99 1 63-27 99-86 99S16-35 15-95c0-66 28-99 85-99zM99-20c44 1 53-31 53-75 0-43-8-75-51-75s-53 32-53 75 10 74 51 75" id="w"/><path fill="#333" d="M114-163C36-179 61-72 57 0H25l-1-190h30c1 12-1 29 2 39 6-27 23-49 58-41v29" id="x"/><path fill="#333" d="M100-194c63 0 86 42 84 106H49c0 40 14 67 53 68 26 1 43-12 49-29l28 8c-11 28-37 45-77 45C44 4 14-33 15-96c1-61 26-98 85-98zm52 81c6-60-76-77-97-28-3 7-6 17-6 28h103" id="y"/><g id="a"><use transform="matrix(0.05,0,0,0.05,0,0)" xlink:href="#q"/><use transform="matrix(0.05,0,0,0.05,12.950000000000001,0)" xlink:href="#r"/><use transform="matrix(0.05,0,0,0.05,16.900000000000002,0)" xlink:href="#s"/><use transform="matrix(0.05,0,0,0.05,26.900000000000002,0)" xlink:href="#t"/><use transform="matrix(0.05,0,0,0.05,36.900000000000006,0)" xlink:href="#u"/><use transform="matrix(0.05,0,0,0.05,45.900000000000006,0)" xlink:href="#v"/><use transform="matrix(0.05,0,0,0.05,54.900000000000006,0)" xlink:href="#w"/><use transform="matrix(0.05,0,0,0.05,64.9,0)" xlink:href="#x"/><use transform="matrix(0.05,0,0,0.05,70.85000000000001,0)" xlink:href="#y"/></g><g id="b"><use transform="matrix(0.05,0,0,0.05,0,0)" xlink:href="#r"/><use transform="matrix(0.05,0,0,0.05,3.95,0)" xlink:href="#u"/></g><path fill="#333" d="M117-194c89-4 53 116 60 194h-32v-121c0-31-8-49-39-48C34-167 62-67 57 0H25l-1-190h30c1 10-1 24 2 32 11-22 29-35 61-36" id="z"/><path fill="#333" d="M59-47c-2 24 18 29 38 22v24C64 9 27 4 27-40v-127H5v-23h24l9-43h21v43h35v23H59v120" id="A"/><g id="c"><use transform="matrix(0.05,0,0,0.05,0,0)" xlink:href="#z"/><use transform="matrix(0.05,0,0,0.05,10,0)" xlink:href="#w"/><use transform="matrix(0.05,0,0,0.05,20,0)" xlink:href="#A"/></g><path fill="#333" d="M85-194c31 0 48 13 60 33l-1-100h32l1 261h-30c-2-10 0-23-3-31C134-8 116 4 85 4 32 4 16-35 15-94c0-66 23-100 70-100zm9 24c-40 0-46 34-46 75 0 40 6 74 45 74 42 0 51-32 51-76 0-42-9-74-50-73" id="B"/><path fill="#333" d="M115-194c55 1 70 41 70 98S169 2 115 4C84 4 66-9 55-30l1 105H24l-1-265h31l2 30c10-21 28-34 59-34zm-8 174c40 0 45-34 45-75s-6-73-45-74c-42 0-51 32-51 76 0 43 10 73 51 73" id="C"/><path fill="#333" d="M24 0v-261h32V0H24" id="D"/><path fill="#333" d="M141-36C126-15 110 5 73 4 37 3 15-17 15-53c-1-64 63-63 125-63 3-35-9-54-41-54-24 1-41 7-42 31l-33-3c5-37 33-52 76-52 45 0 72 20 72 64v82c-1 20 7 32 28 27v20c-31 9-61-2-59-35zM48-53c0 20 12 33 32 33 41-3 63-29 60-74-43 2-92-5-92 41" id="E"/><path fill="#333" d="M179-190L93 31C79 59 56 82 12 73V49c39 6 53-20 64-50L1-190h34L92-34l54-156h33" id="F"/><g id="d"><use transform="matrix(0.05,0,0,0.05,0,0)" xlink:href="#B"/><use transform="matrix(0.05,0,0,0.05,10,0)" xlink:href="#r"/><use transform="matrix(0.05,0,0,0.05,13.949999999999998,0)" xlink:href="#u"/><use transform="matrix(0.05,0,0,0.05,22.95,0)" xlink:href="#C"/><use transform="matrix(0.05,0,0,0.05,32.95,0)" xlink:href="#D"/><use transform="matrix(0.05,0,0,0.05,36.900000000000006,0)" xlink:href="#E"/><use transform="matrix(0.05,0,0,0.05,46.900000000000006,0)" xlink:href="#F"/><use transform="matrix(0.05,0,0,0.05,55.900000000000006,0)" xlink:href="#y"/><use transform="matrix(0.05,0,0,0.05,65.9,0)" xlink:href="#B"/></g><g id="e"><use transform="matrix(0.05,0,0,0.05,0,0)" xlink:href="#r"/><use transform="matrix(0.05,0,0,0.05,3.95,0)" xlink:href="#u"/></g><path fill="#333" d="M205 0l-28-72H64L36 0H1l101-248h38L239 0h-34zm-38-99l-47-123c-12 45-31 82-46 123h93" id="G"/><path fill="#333" d="M108 0H70L1-190h34L89-25l56-165h34" id="H"/><g id="f"><use transform="matrix(0.05,0,0,0.05,0,0)" xlink:href="#G"/><use transform="matrix(0.05,0,0,0.05,12,0)" xlink:href="#v"/><use transform="matrix(0.05,0,0,0.05,21,0)" xlink:href="#A"/><use transform="matrix(0.05,0,0,0.05,26,0)" xlink:href="#r"/><use transform="matrix(0.05,0,0,0.05,29.950000000000003,0)" xlink:href="#H"/><use transform="matrix(0.05,0,0,0.05,38.95,0)" xlink:href="#E"/><use transform="matrix(0.05,0,0,0.05,48.95,0)" xlink:href="#A"/><use transform="matrix(0.05,0,0,0.05,53.95,0)" xlink:href="#w"/><use transform="matrix(0.05,0,0,0.05,63.95,0)" xlink:href="#x"/></g><path fill="#333" d="M87 75C49 33 22-17 22-94c0-76 28-126 65-167h31c-38 41-64 92-64 168S80 34 118 75H87" id="I"/><path fill="#333" d="M210-169c-67 3-38 105-44 169h-31v-121c0-29-5-50-35-48C34-165 62-65 56 0H25l-1-190h30c1 10-1 24 2 32 10-44 99-50 107 0 11-21 27-35 58-36 85-2 47 119 55 194h-31v-121c0-29-5-49-35-48" id="J"/><path fill="#333" d="M115-194c53 0 69 39 70 98 0 66-23 100-70 100C84 3 66-7 56-30L54 0H23l1-261h32v101c10-23 28-34 59-34zm-8 174c40 0 45-34 45-75 0-40-5-75-45-74-42 0-51 32-51 76 0 43 10 73 51 73" id="K"/><path fill="#333" d="M24-231v-30h32v30H24zM-9 49c24 4 33-6 33-30v-209h32V24c2 40-23 58-65 49V49" id="L"/><path fill="#333" d="M33-261c38 41 65 92 65 168S71 34 33 75H2C39 34 66-17 66-93S39-220 2-261h31" id="M"/><g id="g"><use transform="matrix(0.05,0,0,0.05,0,0)" xlink:href="#I"/><use transform="matrix(0.05,0,0,0.05,5.95,0)" xlink:href="#s"/><use transform="matrix(0.05,0,0,0.05,15.949999999999998,0)" xlink:href="#E"/><use transform="matrix(0.05,0,0,0.05,25.950000000000003,0)" xlink:href="#J"/><use transform="matrix(0.05,0,0,0.05,40.9,0)" xlink:href="#y"/><use transform="matrix(0.05,0,0,0.05,50.9,0)" xlink:href="#w"/><use transform="matrix(0.05,0,0,0.05,60.900000000000006,0)" xlink:href="#K"/><use transform="matrix(0.05,0,0,0.05,70.9,0)" xlink:href="#L"/><use transform="matrix(0.05,0,0,0.05,74.85000000000001,0)" xlink:href="#y"/><use transform="matrix(0.05,0,0,0.05,84.85000000000001,0)" xlink:href="#v"/><use transform="matrix(0.05,0,0,0.05,93.85000000000001,0)" xlink:href="#A"/><use transform="matrix(0.05,0,0,0.05,98.85000000000001,0)" xlink:href="#M"/></g><g id="h"><use transform="matrix(0.05,0,0,0.05,0,0)" xlink:href="#r"/><use transform="matrix(0.05,0,0,0.05,3.95,0)" xlink:href="#u"/></g><g id="i"><use transform="matrix(0.05,0,0,0.05,0,0)" xlink:href="#y"/><use transform="matrix(0.05,0,0,0.05,10,0)" xlink:href="#z"/><use transform="matrix(0.05,0,0,0.05,20,0)" xlink:href="#E"/><use transform="matrix(0.05,0,0,0.05,30,0)" xlink:href="#K"/><use transform="matrix(0.05,0,0,0.05,40,0)" xlink:href="#D"/><use transform="matrix(0.05,0,0,0.05,43.95,0)" xlink:href="#y"/><use transform="matrix(0.05,0,0,0.05,53.95,0)" xlink:href="#B"/></g><path fill="#333" d="M26 75v-336h71v23H56V52h41v23H26" id="N"/><path fill="#333" d="M127-220V0H93v-220H8v-28h204v28h-85" id="O"/><g id="j"><use transform="matrix(0.05,0,0,0.05,0,0)" xlink:href="#N"/><use transform="matrix(0.05,0,0,0.05,5,0)" xlink:href="#O"/><use transform="matrix(0.05,0,0,0.05,15.3,0)" xlink:href="#r"/><use transform="matrix(0.05,0,0,0.05,19.25,0)" xlink:href="#J"/><use transform="matrix(0.05,0,0,0.05,34.2,0)" xlink:href="#y"/><use transform="matrix(0.05,0,0,0.05,44.2,0)" xlink:href="#x"/></g><path fill="#333" d="M18-27v-27l151-64-151-65v-27l175 74v36" id="P"/><path fill="#333" d="M18-150v-26h174v26H18zm0 90v-26h174v26H18" id="Q"/><g id="k"><use transform="matrix(0.05,0,0,0.05,0,0)" xlink:href="#P"/><use transform="matrix(0.05,0,0,0.05,10.5,0)" xlink:href="#Q"/></g><path fill="#333" d="M101-251c68 0 85 55 85 127S166 4 100 4C33 4 14-52 14-124c0-73 17-127 87-127zm-1 229c47 0 54-49 54-102s-4-102-53-102c-51 0-55 48-55 102 0 53 5 102 54 102" id="R"/><path fill="#333" d="M3 75V52h41v-290H3v-23h71V75H3" id="S"/><g id="l"><use transform="matrix(0.05,0,0,0.05,0,0)" xlink:href="#R"/><use transform="matrix(0.05,0,0,0.05,10,0)" xlink:href="#S"/></g><g id="m"><use transform="matrix(0.05,0,0,0.05,0,0)" xlink:href="#B"/><use transform="matrix(0.05,0,0,0.05,10,0)" xlink:href="#r"/><use transform="matrix(0.05,0,0,0.05,13.949999999999998,0)" xlink:href="#u"/><use transform="matrix(0.05,0,0,0.05,22.95,0)" xlink:href="#E"/><use transform="matrix(0.05,0,0,0.05,32.95,0)" xlink:href="#K"/><use transform="matrix(0.05,0,0,0.05,42.95,0)" xlink:href="#D"/><use transform="matrix(0.05,0,0,0.05,46.900000000000006,0)" xlink:href="#y"/><use transform="matrix(0.05,0,0,0.05,56.900000000000006,0)" xlink:href="#B"/></g><g id="n"><use transform="matrix(0.05,0,0,0.05,0,0)" xlink:href="#N"/><use transform="matrix(0.05,0,0,0.05,5,0)" xlink:href="#O"/><use transform="matrix(0.05,0,0,0.05,15.3,0)" xlink:href="#r"/><use transform="matrix(0.05,0,0,0.05,19.25,0)" xlink:href="#J"/><use transform="matrix(0.05,0,0,0.05,34.2,0)" xlink:href="#y"/><use transform="matrix(0.05,0,0,0.05,44.2,0)" xlink:href="#x"/></g><path fill="#333" d="M18-100v-36l175-74v27L42-118l151 64v27" id="T"/><use transform="matrix(0.05,0,0,0.05,0,0)" xlink:href="#T" id="o"/><g id="p"><use transform="matrix(0.05,0,0,0.05,0,0)" xlink:href="#R"/><use transform="matrix(0.05,0,0,0.05,10,0)" xlink:href="#S"/></g></defs></g></svg>